<?xml version="1.0" encoding="UTF-8" standalone="no"?>
<!DOCTYPE svg PUBLIC "-//W3C//DTD SVG 1.1//EN" "http://www.w3.org/Graphics/SVG/1.1/DTD/svg11.dtd">
<svg width="100%" height="100%" viewBox="0 0 560 608" version="1.1" xmlns="http://www.w3.org/2000/svg" xmlns:xlink="http://www.w3.org/1999/xlink" xml:space="preserve" xmlns:serif="http://www.serif.com/" style="fill-rule:evenodd;clip-rule:evenodd;stroke-linejoin:round;stroke-miterlimit:1.41421;">
    <g transform="matrix(4.16667,0,0,4.16667,-721.575,-1215.38)">
        <path d="M223.767,341.834C205.167,329.669 200.638,301.868 226.626,296.169C237.997,293.183 253.251,298.455 256.155,310.596C259.169,321.423 255.382,328.976 250.702,336.551C260.013,334.704 299.608,314.981 297.513,339.905C296.134,356.301 249.193,352.973 271.563,372.357C279.796,379.492 296.554,382.428 301.571,392.765C305.51,400.371 304.061,409.824 296.587,413.145C286.764,417.748 277.672,410.579 269.661,403.411C262.121,396.665 255.539,389.919 250.207,392.984C237.801,400.508 246.612,439.074 221.647,433.142C198.721,427.695 216.502,400.993 220.258,387.444C225.819,367.379 214.302,369.206 202.413,371.032C198.243,371.672 194.028,372.312 190.487,372.009C168.463,369.459 176.493,345.379 192.322,346.736C201.507,347.524 216.127,347.125 223.767,341.834Z" style="fill:rgb(166,122,77);fill-rule:nonzero;"/>
    </g>
    <g transform="matrix(4.16667,0,0,4.16667,-721.575,-1215.38)">
        <path d="M225.659,338.596C213.582,330.417 205.109,310.418 221.415,301.844C229.615,297.531 240.842,298.197 247.994,304.213C257.553,312.254 252.848,325.837 247.464,334.658C245.66,337.614 248.604,340.833 251.698,340.167C257.814,338.851 263.69,336.154 269.656,334.297C276.039,332.31 283.989,329.698 290.621,331.905C296.132,333.74 294.031,341.743 290.477,344.317C285.296,348.068 278.725,349.655 272.902,352.109C268.167,354.105 262.244,356.993 261.815,362.835C261.295,369.925 269.095,375.713 274.403,378.866C283.155,384.065 295.99,386.618 299.415,397.472C301.093,402.786 299.097,408.336 293.724,410.269C289.824,411.67 285.847,410.331 282.386,408.442C275.111,404.474 269.692,397.817 263.158,392.841C258.249,389.102 251.823,386.383 246.529,391.064C235.992,400.378 241.527,418.156 232.12,427.901C227.018,433.187 215.775,428.842 214.124,422.348C212.116,414.453 217.716,404.337 220.618,397.284C223.546,390.166 227.588,380.722 224.456,373.065C221.784,366.533 214.702,365.855 208.517,366.441C202.529,367.01 196.214,369.052 190.173,368.21C184.081,367.361 178.575,363.01 181.589,356.486C184.897,349.325 192.172,350.663 198.658,350.791C207.68,350.968 217.891,350.062 225.659,345.072C229.713,342.468 225.957,335.974 221.874,338.596C214.731,343.184 206.815,343.04 198.859,342.896C195.733,342.839 192.601,342.782 189.508,343.013C182.11,343.562 176.137,348.889 173.873,355.784C171.518,362.956 175.392,370.122 181.815,373.428C189.176,377.217 197.413,375.556 205.171,374.379C208.15,373.928 211.418,373.374 214.427,373.855C217.737,374.386 218.014,376.824 217.914,379.815C217.619,388.673 212.272,397.387 209.339,405.556C206.667,413 204.563,421.977 208.906,429.204C213.071,436.138 223.349,438.634 230.812,436.976C245.19,433.781 244.699,412.636 248.433,401.764C249.066,399.918 250.288,396.884 252.303,396.11C254.579,395.236 257.709,398.015 259.302,399.275C265.815,404.433 271.367,410.685 278.601,414.919C285.551,418.988 294.804,419.915 301.399,414.554C309.46,408.002 308.786,395.798 302.972,387.981C296.778,379.654 285.721,376.864 277.156,371.777C274.421,370.152 270.743,367.418 269.501,364.319C268.889,362.792 270.088,362.013 271.538,361.091C278.371,356.75 286.789,355.548 293.675,351.189C300.973,346.57 304.02,337.012 298.99,329.411C293.9,321.72 282.714,323.38 275.088,325.053C266.41,326.956 258.351,331.074 249.705,332.935C251.116,334.771 252.528,336.607 253.939,338.443C261.225,326.508 264.727,311.022 254.156,299.723C245.516,290.486 230.584,289.907 219.578,294.495C209.717,298.607 203.949,307.816 204.848,318.486C205.776,329.507 212.952,339.029 221.874,345.072C225.891,347.792 229.639,341.291 225.659,338.596Z" style="fill:rgb(166,122,77);fill-rule:nonzero;"/>
    </g>
    <g transform="matrix(4.16667,0,0,4.16667,-721.575,-1215.38)">
        <path d="M225.639,429.96C223.608,429.96 221.473,429.433 219.402,428.468C216.818,427.032 214.76,424.849 214.124,422.348C213.834,421.211 213.703,420.028 213.699,418.815C213.97,413.681 216.434,407.821 217.737,404.403C218.331,402.846 219.083,401.017 219.881,399.018C220.14,398.422 220.387,397.844 220.618,397.284C223.546,390.166 227.588,380.722 224.456,373.065C223.047,369.62 220.41,367.803 217.326,366.942C216.34,366.652 215.246,366.436 214.034,366.302C213.128,366.201 212.218,366.157 211.307,366.157C205.166,366.157 198.957,368.16 192.846,368.333C192.699,368.337 192.551,368.339 192.404,368.339C185.246,368.34 177.877,363.457 181.962,355.785C182.287,355.175 182.643,354.634 183.028,354.154C185.482,351.164 189.065,350.611 192.853,350.611C194.776,350.611 196.751,350.753 198.658,350.791C199.326,350.804 200,350.811 200.679,350.811C208.919,350.811 217.899,349.76 224.995,345.485C225.356,345.333 225.689,345.113 225.984,344.842C226.081,344.767 226.172,344.69 226.258,344.61C227.987,343.007 227.835,340.362 225.994,338.846C225.926,338.79 225.856,338.736 225.783,338.682C225.682,338.605 225.577,338.532 225.469,338.466C215.72,331.743 208.409,317.349 214.776,307.628C216.631,304.969 219.363,302.933 222.541,301.5C223.913,314.393 231.234,325.424 235.947,337.455C238.941,345.097 239.465,353.222 240.556,361.278C241.729,369.942 243.548,378.425 246.8,386.559C246.813,386.594 246.828,386.63 246.842,386.665C246.855,386.697 246.869,386.729 246.882,386.761C247.311,387.795 247.738,388.831 248.161,389.867C247.607,390.195 247.062,390.592 246.529,391.064C246.192,391.361 245.873,391.666 245.568,391.98C238.206,399.163 238.688,415.282 234.859,423.766C232.905,428.094 229.457,429.96 225.639,429.96Z" style="fill:rgb(160,116,74);fill-rule:nonzero;"/>
    </g>
    <g transform="matrix(4.16667,0,0,4.16667,-721.575,-1215.38)">
        <path d="M219.402,428.468C218.671,428.127 217.947,427.732 217.239,427.286C214.343,425.463 213.514,422.307 213.699,418.815C213.703,420.028 213.834,421.211 214.124,422.348C214.76,424.849 216.818,427.032 219.402,428.468ZM219.881,399.018C224.417,387.658 230.438,370.793 217.326,366.942C220.41,367.803 223.047,369.62 224.456,373.065C227.588,380.722 223.546,390.166 220.618,397.284C220.387,397.844 220.14,398.422 219.881,399.018ZM245.568,391.98C245.873,391.666 246.192,391.361 246.529,391.064C247.062,390.592 247.607,390.195 248.161,389.867C248.179,389.912 248.198,389.957 248.216,390.002C247.234,390.546 246.356,391.212 245.568,391.98ZM183.028,354.154C185.433,351.153 188.922,350.578 192.59,350.578C194.609,350.578 196.681,350.752 198.658,350.791C196.751,350.753 194.776,350.611 192.853,350.611C189.065,350.611 185.482,351.164 183.028,354.154ZM224.995,345.485C225.218,345.351 225.44,345.213 225.659,345.072C225.879,344.931 226.079,344.776 226.258,344.61C226.172,344.69 226.081,344.767 225.984,344.842C225.689,345.113 225.356,345.333 224.995,345.485ZM225.994,338.846C225.888,338.759 225.776,338.675 225.659,338.596C218.531,333.766 212.897,326.048 212.259,317.264C211.982,313.441 212.957,310.235 214.776,307.628C208.409,317.349 215.72,331.743 225.469,338.466C225.577,338.532 225.682,338.605 225.783,338.682C225.856,338.736 225.926,338.79 225.994,338.846Z" style="fill:rgb(160,116,74);fill-rule:nonzero;"/>
    </g>
    <g transform="matrix(4.16667,0,0,4.16667,-721.575,-1215.38)">
        <path d="M226.111,437.47C219.514,437.47 212.245,434.763 208.906,429.204C207.104,426.204 206.412,422.903 206.41,419.536C206.412,422.903 207.104,426.204 208.906,429.204C212.245,434.763 219.514,437.47 226.111,437.47C227.742,437.47 229.332,437.304 230.812,436.976C230.822,436.973 230.834,436.971 230.844,436.968C230.834,436.971 230.822,436.973 230.812,436.976C229.332,437.304 227.742,437.47 226.111,437.47ZM250.925,397.073C251.336,396.645 251.794,396.306 252.303,396.11C252.603,395.995 252.919,395.943 253.243,395.943C253.285,395.943 253.327,395.944 253.369,395.946C253.29,395.959 253.212,395.971 253.134,395.979C252.283,396.077 251.553,396.477 250.925,397.073ZM212.086,336.014C207.614,330.363 204.647,323.544 204.73,316.304C204.745,314.923 204.866,313.593 205.083,312.318C204.754,314.298 204.669,316.363 204.848,318.486C205.395,324.985 208.116,330.964 212.086,336.014ZM224.08,292.966C224.411,292.872 224.745,292.781 225.082,292.695C225.229,292.658 225.377,292.629 225.526,292.61C225.039,292.72 224.558,292.838 224.08,292.966Z" style="fill:rgb(171,175,176);fill-rule:nonzero;"/>
    </g>
    <g transform="matrix(4.16667,0,0,4.16667,-721.575,-1215.38)">
        <path d="M226.111,437.47C219.514,437.47 212.245,434.763 208.906,429.204C207.104,426.204 206.412,422.903 206.41,419.536C206.407,414.789 207.776,409.91 209.339,405.556C212.272,397.387 217.619,388.673 217.914,379.815C217.924,379.523 217.93,379.236 217.93,378.956C217.931,376.366 217.414,374.334 214.427,373.855C213.604,373.724 212.761,373.669 211.91,373.669C209.651,373.669 207.335,374.051 205.171,374.379C201.025,375.008 196.744,375.775 192.531,375.775C188.861,375.775 185.242,375.192 181.815,373.428C176.684,370.787 173.179,365.683 173.178,360.08C173.177,358.669 173.399,357.227 173.873,355.784C176.137,348.889 182.11,343.562 189.508,343.013C191.228,342.885 192.959,342.845 194.695,342.845C196.081,342.845 197.471,342.87 198.859,342.896C200.247,342.921 201.634,342.946 203.017,342.946C207.725,342.946 212.375,342.654 216.81,341.076C215.115,339.526 213.522,337.83 212.086,336.014C208.116,330.964 205.395,324.985 204.848,318.486C204.669,316.363 204.754,314.298 205.083,312.318C206.764,302.446 214.257,295.777 224.08,292.966C224.558,292.838 225.039,292.72 225.526,292.61C225.687,292.589 225.849,292.579 226.01,292.579C227.474,292.579 228.866,293.424 229.489,294.717C226.282,295.122 223.153,295.962 220.309,297.147C211.528,300.808 206.81,309.138 207.598,318.486C208.393,327.922 214.48,336.272 221.942,341.765C215.868,345.179 209.347,345.636 202.72,345.636C201.511,345.636 200.299,345.621 199.085,345.606C197.871,345.591 196.656,345.576 195.441,345.576C193.459,345.576 191.478,345.616 189.508,345.763C183.379,346.219 178.386,350.846 176.524,356.516C174.534,362.577 177.817,368.281 183.203,371.054C186.157,372.574 189.33,373.079 192.555,373.079C196.539,373.079 200.603,372.309 204.44,371.728C206.735,371.379 209.18,371.048 211.454,371.048C216.609,371.048 220.899,372.749 220.664,379.815C220.358,388.997 215.029,397.823 211.991,406.287C209.586,412.987 207.342,421.261 211.28,427.816C214.088,432.491 220.445,434.741 226.073,434.741C227.476,434.741 228.833,434.601 230.08,434.324C242.907,431.475 242.471,410.67 245.781,401.032C246.785,398.109 248.5,394.638 251.571,393.458C252.097,393.256 252.638,393.167 253.185,393.167C254.267,393.167 255.375,393.517 256.443,394.04C255.766,395.041 254.544,395.744 253.369,395.946C253.327,395.944 253.285,395.943 253.243,395.943C252.919,395.943 252.603,395.995 252.303,396.11C251.794,396.306 251.336,396.645 250.925,397.073C248.771,399.114 247.817,403.447 247.253,405.681C246.165,409.985 245.439,414.371 244.359,418.677C242.525,425.988 239.174,435.097 230.844,436.968C230.834,436.971 230.822,436.973 230.812,436.976C229.332,437.304 227.742,437.47 226.111,437.47ZM226.073,432.982C219.775,432.982 212.928,428.801 211.472,423.078C209.3,414.541 214.816,404.208 217.966,396.553C220.699,389.911 224.739,380.971 221.804,373.797C220.197,369.867 216.055,368.996 212.127,368.996C210.872,368.996 209.639,369.085 208.517,369.191C203.335,369.683 198.11,371.089 192.881,371.089C191.735,371.089 190.588,371.022 189.442,370.862C181.334,369.732 175.492,363.156 179.214,355.099C182.124,348.801 187.654,347.929 193.453,347.929C195.185,347.929 196.94,348.007 198.658,348.041C199.333,348.054 200.017,348.062 200.704,348.062C208.662,348.062 217.341,347.075 224.107,342.802C224.198,342.762 224.283,342.705 224.358,342.636C224.692,342.377 224.783,342.005 224.715,341.664C224.681,341.415 224.554,341.175 224.303,340.993C224.276,340.972 224.247,340.952 224.218,340.934C210.543,331.631 201.727,309.092 220.027,299.469C223.058,297.875 226.405,296.889 229.824,296.516C229.806,297.44 229.826,298.355 229.881,299.258C226.906,299.614 224.009,300.48 221.415,301.844C218.398,303.43 216.23,305.406 214.776,307.628C212.957,310.235 211.982,313.441 212.259,317.264C212.897,326.048 218.531,333.766 225.659,338.596C225.776,338.675 225.888,338.759 225.994,338.846C226.794,339.506 227.208,340.343 227.323,341.203C227.557,342.38 227.283,343.656 226.258,344.61C226.079,344.776 225.879,344.931 225.659,345.072C225.44,345.213 225.218,345.351 224.995,345.485C217.899,349.76 208.919,350.811 200.679,350.811C200,350.811 199.326,350.804 198.658,350.791C196.681,350.752 194.609,350.578 192.59,350.578C188.922,350.578 185.433,351.153 183.028,354.154C182.491,354.808 182.008,355.579 181.589,356.486C178.575,363.01 184.081,367.361 190.173,368.21C191.182,368.351 192.199,368.411 193.221,368.411C198.315,368.411 203.53,366.915 208.517,366.441C209.604,366.338 210.718,366.274 211.832,366.274C213.713,366.274 215.591,366.457 217.326,366.942C230.438,370.793 224.417,387.658 219.881,399.018C217.345,404.847 213.675,412.272 213.699,418.815C213.514,422.307 214.343,425.463 217.239,427.286C217.947,427.732 218.671,428.127 219.402,428.468C221.431,429.596 223.782,430.263 226.022,430.263C228.334,430.263 230.526,429.552 232.12,427.901C241.227,418.467 236.331,401.504 245.568,391.98C246.356,391.212 247.234,390.546 248.216,390.002C248.198,389.957 248.179,389.912 248.161,389.867C249.684,388.966 251.272,388.583 252.871,388.583C253.864,388.583 254.862,388.731 255.849,388.994C256.151,389.739 256.452,390.485 256.75,391.232C256.888,391.578 256.959,391.915 256.975,392.239C255.656,391.652 254.289,391.271 252.937,391.271C251.399,391.271 249.881,391.764 248.473,393.008C238.162,402.123 243.55,420.019 234.064,429.846C231.954,432.032 229.076,432.982 226.073,432.982Z" style="fill:rgb(160,116,74);fill-rule:nonzero;"/>
    </g>
    <g transform="matrix(4.16667,0,0,4.16667,-721.575,-1215.38)">
        <path d="M226.022,430.263C223.782,430.263 221.431,429.596 219.402,428.468C221.473,429.433 223.608,429.96 225.639,429.96C229.457,429.96 232.905,428.094 234.859,423.766C238.688,415.282 238.206,399.163 245.568,391.98C236.331,401.504 241.227,418.467 232.12,427.901C230.526,429.552 228.334,430.263 226.022,430.263ZM213.699,418.815C213.675,412.272 217.345,404.847 219.881,399.018C219.083,401.017 218.331,402.846 217.737,404.403C216.434,407.821 213.97,413.681 213.699,418.815ZM248.161,389.867C247.738,388.831 247.311,387.795 246.882,386.761C246.869,386.729 246.855,386.697 246.842,386.665C246.828,386.63 246.813,386.594 246.8,386.559C243.548,378.425 241.729,369.942 240.556,361.278C239.465,353.222 238.941,345.097 235.947,337.455C231.234,325.424 223.913,314.393 222.541,301.5C219.363,302.933 216.631,304.969 214.776,307.628C216.23,305.406 218.398,303.43 221.415,301.844C224.009,300.48 226.906,299.614 229.881,299.258C230.702,312.861 239.341,324.174 243.693,336.856C246.387,344.704 246.808,352.853 248.033,361.005C249.253,369.127 251.007,377.031 254.074,384.671C254.671,386.11 255.263,387.55 255.849,388.994C254.862,388.731 253.864,388.583 252.871,388.583C251.272,388.583 249.684,388.966 248.161,389.867ZM193.221,368.411C192.199,368.411 191.182,368.351 190.173,368.21C184.081,367.361 178.575,363.01 181.589,356.486C182.008,355.579 182.491,354.808 183.028,354.154C182.643,354.634 182.287,355.175 181.962,355.785C177.877,363.457 185.246,368.34 192.404,368.339C192.551,368.339 192.699,368.337 192.846,368.333C198.957,368.16 205.166,366.157 211.307,366.157C212.218,366.157 213.128,366.201 214.034,366.302C215.246,366.436 216.34,366.652 217.326,366.942C215.591,366.457 213.713,366.274 211.832,366.274C210.718,366.274 209.604,366.338 208.517,366.441C203.53,366.915 198.315,368.411 193.221,368.411ZM200.679,350.811C200,350.811 199.326,350.804 198.658,350.791C199.326,350.804 200,350.811 200.679,350.811C208.919,350.811 217.899,349.76 224.995,345.485C217.899,349.76 208.919,350.811 200.679,350.811ZM226.258,344.61C227.283,343.656 227.557,342.38 227.323,341.203C227.208,340.343 226.794,339.506 225.994,338.846C227.835,340.362 227.987,343.007 226.258,344.61Z" style="fill:rgb(160,116,74);fill-rule:nonzero;"/>
    </g>
    <g transform="matrix(4.16667,0,0,4.16667,-721.575,-1215.38)">
        <path d="M290.619,415.57C286.906,415.57 283.109,414.371 279.988,412.544C272.961,408.431 267.576,402.342 261.246,397.33C259.97,396.32 258.264,394.93 256.443,394.04C256.799,393.512 257.006,392.902 256.975,392.239C258.702,393.008 260.346,394.131 261.771,395.215C268.317,400.201 273.699,406.835 280.998,410.817C283.877,412.388 287.12,413.613 290.394,413.613C291.75,413.613 293.112,413.403 294.455,412.92C301.208,410.491 304.219,403.559 302.067,396.74C298.31,384.833 285.386,382.19 275.792,376.492C271.337,373.846 264.122,368.88 264.565,362.835C264.884,358.503 270.248,356.188 273.633,354.762C279.668,352.218 286.498,350.577 291.864,346.691C297.319,342.742 299.313,331.903 291.352,329.254C289.009,328.474 286.626,328.144 284.22,328.144C273.033,328.144 261.355,335.28 250.967,337.515C250.893,337.531 250.819,337.538 250.746,337.538C250.011,337.538 249.4,336.763 249.838,336.046C255.85,326.196 260.48,311.135 249.938,302.269C245.232,298.31 239.1,296.346 232.953,296.346C231.908,296.346 230.863,296.403 229.824,296.516C229.825,296.448 229.827,296.38 229.829,296.311C229.843,295.732 229.718,295.194 229.489,294.717C230.917,294.537 232.36,294.443 233.801,294.443C240.652,294.443 247.444,296.57 252.212,301.668C261.316,311.401 258.578,324.513 252.741,335.037C260.528,333.007 267.917,329.437 275.819,327.704C278.684,327.076 282.436,326.315 286.064,326.315C290.28,326.315 294.328,327.343 296.615,330.799C300.81,337.136 298.386,344.955 292.287,348.815C285.402,353.173 276.988,354.372 270.15,358.717C262.339,363.68 270.32,370.916 275.768,374.151C283.788,378.915 294.8,381.574 300.598,389.369C305.736,396.277 306.631,406.776 299.455,412.609C296.882,414.701 293.78,415.57 290.619,415.57Z" style="fill:rgb(211,171,140);fill-rule:nonzero;"/>
    </g>
    <g transform="matrix(4.16667,0,0,4.16667,-721.575,-1215.38)">
        <path d="M226.073,434.741C220.445,434.741 214.088,432.491 211.28,427.816C207.342,421.261 209.586,412.987 211.991,406.287C215.029,397.823 220.358,388.997 220.664,379.815C220.899,372.749 216.609,371.048 211.454,371.048C209.18,371.048 206.735,371.379 204.44,371.728C200.603,372.309 196.539,373.079 192.555,373.079C189.33,373.079 186.157,372.574 183.203,371.054C177.817,368.281 174.534,362.577 176.524,356.516C178.386,350.846 183.379,346.219 189.508,345.763C191.478,345.616 193.459,345.576 195.441,345.576C196.656,345.576 197.871,345.591 199.085,345.606C200.299,345.621 201.511,345.636 202.72,345.636C209.347,345.636 215.868,345.179 221.942,341.765C214.48,336.272 208.393,327.922 207.598,318.486C206.81,309.138 211.528,300.808 220.309,297.147C223.153,295.962 226.282,295.122 229.489,294.717C229.718,295.194 229.843,295.732 229.829,296.311C229.827,296.38 229.825,296.448 229.824,296.516C226.405,296.889 223.058,297.875 220.027,299.469C201.727,309.092 210.543,331.631 224.218,340.934C224.247,340.952 224.276,340.972 224.303,340.993C224.554,341.175 224.681,341.415 224.715,341.664C224.783,342.005 224.692,342.377 224.358,342.636C224.283,342.705 224.198,342.762 224.107,342.802C217.341,347.075 208.662,348.062 200.704,348.062C200.017,348.062 199.333,348.054 198.658,348.041C196.94,348.007 195.185,347.929 193.453,347.929C187.654,347.929 182.124,348.801 179.214,355.099C175.492,363.156 181.334,369.732 189.442,370.862C190.588,371.022 191.735,371.089 192.881,371.089C198.11,371.089 203.335,369.683 208.517,369.191C209.639,369.085 210.872,368.996 212.127,368.996C216.055,368.996 220.197,369.867 221.804,373.797C224.739,380.971 220.699,389.911 217.966,396.553C214.816,404.208 209.3,414.541 211.472,423.078C212.928,428.801 219.775,432.982 226.073,432.982C229.076,432.982 231.954,432.032 234.064,429.846C243.55,420.019 238.162,402.123 248.473,393.008C249.881,391.764 251.399,391.271 252.937,391.271C254.289,391.271 255.656,391.652 256.975,392.239C257.006,392.902 256.799,393.512 256.443,394.04C255.375,393.517 254.267,393.167 253.185,393.167C252.638,393.167 252.097,393.256 251.571,393.458C248.5,394.638 246.785,398.109 245.781,401.032C242.471,410.67 242.907,431.475 230.08,434.324C228.833,434.601 227.476,434.741 226.073,434.741Z" style="fill:rgb(210,170,139);fill-rule:nonzero;"/>
    </g>
    <g transform="matrix(4.16667,0,0,4.16667,-721.575,-1215.38)">
        <path d="M189.825,344.076C191.424,354.087 193.111,364.299 191.825,374.442C191.42,377.635 196.425,377.596 196.825,374.442C198.165,363.872 196.312,353.177 194.646,342.746C194.139,339.569 189.321,340.923 189.825,344.076Z" style="fill:rgb(233,193,167);fill-rule:nonzero;"/>
    </g>
    <g transform="matrix(4.16667,0,0,4.16667,-721.575,-1215.38)">
        <path d="M278.258,324.701C279.482,335.314 284.596,344.295 289.801,353.423C291.398,356.223 295.719,353.705 294.119,350.899C289.413,342.647 284.368,334.325 283.258,324.701C282.893,321.537 277.889,321.501 278.258,324.701Z" style="fill:rgb(233,193,167);fill-rule:nonzero;"/>
    </g>
    <g transform="matrix(4.16667,0,0,4.16667,-721.575,-1215.38)">
        <path d="M205.526,415.296C215.93,424.45 229.036,424.492 242.131,425.543C245.348,425.801 245.323,420.799 242.131,420.543C230.54,419.612 218.32,419.906 209.062,411.761C206.651,409.64 203.101,413.162 205.526,415.296Z" style="fill:rgb(233,193,167);fill-rule:nonzero;"/>
    </g>
    <g transform="matrix(4.16667,0,0,4.16667,-721.575,-1215.38)">
        <path d="M297.801,383.825C292.444,393.69 285.818,405.34 275.598,410.809C272.754,412.331 275.279,416.647 278.121,415.127C289.093,409.255 296.368,396.938 302.119,386.349C303.657,383.515 299.34,380.991 297.801,383.825Z" style="fill:rgb(233,193,167);fill-rule:nonzero;"/>
    </g>
    <g transform="matrix(4.16667,0,0,4.16667,-721.575,-1215.38)">
        <path d="M241.033,353.472C245.547,353.472 245.547,346.472 241.033,346.472C236.519,346.472 236.519,353.472 241.033,353.472Z" style="fill:rgb(233,193,167);fill-rule:nonzero;"/>
    </g>
    <g transform="matrix(4.16667,0,0,4.16667,-721.575,-1215.38)">
        <path d="M243.926,367.958C248.44,367.958 248.44,360.958 243.926,360.958C239.412,360.958 239.412,367.958 243.926,367.958Z" style="fill:rgb(233,193,167);fill-rule:nonzero;"/>
    </g>
    <g transform="matrix(4.16667,0,0,4.16667,-721.575,-1215.38)">
        <path d="M246.871,381.856C251.385,381.856 251.385,374.856 246.871,374.856C242.356,374.856 242.356,381.856 246.871,381.856Z" style="fill:rgb(233,193,167);fill-rule:nonzero;"/>
    </g>
    <g transform="matrix(4.16667,0,0,4.16667,-721.575,-1215.38)">
        <path d="M226.746,324.896C229.97,324.896 229.97,319.896 226.746,319.896C223.522,319.896 223.522,324.896 226.746,324.896Z" style="fill:rgb(60,35,20);fill-rule:nonzero;"/>
    </g>
    <g transform="matrix(4.16667,0,0,4.16667,-721.575,-1215.38)">
        <path d="M241.181,322.419C244.405,322.419 244.405,317.419 241.181,317.419C237.957,317.419 237.957,322.419 241.181,322.419Z" style="fill:rgb(60,35,20);fill-rule:nonzero;"/>
    </g>
    <g transform="matrix(4.16667,0,0,4.16667,-721.575,-1215.38)">
        <path d="M218.712,307.09C218.605,307.454 218.465,307.813 218.386,308.181C218.29,308.544 218.217,308.908 218.17,309.278C218.123,309.645 218.082,310.012 218.092,310.373C218.089,310.734 218.129,311.091 218.201,311.432C218.278,311.771 218.387,312.097 218.547,312.386C218.686,312.687 218.899,312.937 219.12,313.16C219.351,313.375 219.609,313.556 219.897,313.679C220.175,313.819 220.49,313.882 220.797,313.931C222.054,314.081 223.364,313.579 224.277,312.699C225.2,311.816 225.756,310.604 225.984,309.312L226.008,309.217C226.109,308.746 226.157,308.27 226.114,307.813C226.064,307.369 225.909,306.921 225.747,306.717L225.683,306.647C225.702,306.681 225.727,306.69 225.875,306.74L226.072,306.749L226.235,306.702L226.311,306.654L226.302,306.688C226.217,306.825 225.999,307.291 225.927,307.803L225.887,307.989L225.867,308.082L225.878,308.011L225.876,308.025L225.874,308.054L225.868,308.11L225.82,308.563L225.801,308.78L225.82,308.909L225.836,309.164C225.926,309.568 226.012,309.978 226.257,310.329C226.665,311.062 227.435,311.657 228.302,312.056C229.189,312.426 230.191,312.606 231.137,312.516L231.487,312.468L231.575,312.457L231.597,312.455L231.607,312.453C231.636,312.448 231.401,312.499 231.507,312.476L231.562,312.461L231.782,312.401C231.917,312.361 232.101,312.323 232.196,312.281L232.469,312.165C232.868,312.003 233.334,311.75 233.734,311.46C234.551,310.874 235.27,310.11 235.776,309.264C236.268,308.41 236.521,307.486 236.476,306.623C236.442,306.208 236.338,305.738 236.178,305.396C236.05,305.132 235.899,304.795 235.816,304.713C235.728,304.544 235.625,304.463 235.568,304.378L235.638,304.396C235.73,304.43 235.822,304.388 235.909,304.382C236.08,304.282 236.003,304.313 235.928,304.402C235.755,304.637 235.597,305.114 235.525,305.572C235.436,306.041 235.426,306.543 235.486,307.012C235.533,307.51 235.672,307.844 235.927,308.473C236.321,309.419 236.942,310.318 237.715,310.912C238.48,311.533 239.471,311.811 240.494,311.718C241.504,311.599 242.554,311.168 243.337,310.417C244.114,309.683 244.675,308.648 244.564,307.545C244.448,306.443 243.675,305.426 242.707,304.693C243.774,305.231 244.852,306.093 245.206,307.424C245.572,308.751 245.062,310.191 244.203,311.215C243.349,312.266 242.128,313.022 240.75,313.315C239.375,313.604 237.814,313.351 236.594,312.557C235.35,311.774 234.489,310.642 233.848,309.397C233.607,308.923 233.225,308.14 233.113,307.424C232.967,306.698 232.922,305.969 233.01,305.235C233.108,304.498 233.253,303.767 233.736,302.97C233.896,302.76 234.012,302.566 234.239,302.361C234.493,302.159 234.704,301.958 235.117,301.844C235.49,301.698 235.885,301.717 236.279,301.794C236.65,301.874 236.88,302.041 237.165,302.201C237.561,302.519 237.893,302.867 238.117,303.225C238.407,303.625 238.498,303.85 238.651,304.124C239.039,304.868 239.226,305.596 239.328,306.385C239.46,307.956 239.01,309.463 238.31,310.719C237.586,311.971 236.618,313.024 235.476,313.872C234.894,314.297 234.3,314.653 233.575,314.952L232.998,315.163C232.808,315.229 232.691,315.246 232.535,315.289L232.314,315.346L232.259,315.359L232.13,315.388L232.113,315.39L232.078,315.395L231.939,315.411L231.386,315.476C229.907,315.59 228.449,315.307 227.108,314.718C225.796,314.091 224.52,313.143 223.768,311.72C223.364,311.031 223.179,310.228 223.079,309.439L223.072,308.783L223.079,308.457C223.086,308.362 223.101,308.302 223.111,308.222L223.178,307.771L223.21,307.573L223.242,307.445L223.308,307.188L223.442,306.676L223.644,306.137C223.7,305.965 223.802,305.77 223.914,305.575C224.013,305.389 224.128,305.193 224.332,304.977C224.58,304.602 225.442,304.023 226.32,304.209C226.78,304.291 227.05,304.487 227.321,304.693C227.531,304.891 227.724,305.107 227.849,305.312C228.764,306.943 228.583,308.46 228.174,309.87L228.198,309.776C228.079,310.191 227.971,310.605 227.8,311.006C227.651,311.41 227.445,311.801 227.225,312.177C226.784,312.932 226.187,313.603 225.491,314.142C224.104,315.209 222.254,315.749 220.516,315.307C220.089,315.183 219.667,315.029 219.292,314.781C218.909,314.551 218.573,314.245 218.294,313.903C218.025,313.554 217.793,313.175 217.661,312.766C217.511,312.364 217.446,311.944 217.418,311.535C217.397,311.126 217.417,310.721 217.481,310.328C217.536,309.935 217.63,309.551 217.753,309.182C217.873,308.812 218.02,308.452 218.186,308.104C218.336,307.75 218.539,307.429 218.712,307.09Z" style="fill:rgb(137,93,59);fill-rule:nonzero;"/>
    </g>
    <g transform="matrix(4.16667,0,0,4.16667,-721.575,-1215.38)">
        <path d="M220.825,335.301C225.662,335.301 225.662,327.801 220.825,327.801C215.989,327.801 215.989,335.301 220.825,335.301Z" style="fill:rgb(237,158,197);fill-rule:nonzero;"/>
    </g>
    <g transform="matrix(4.16667,0,0,4.16667,-721.575,-1215.38)">
        <path d="M250.083,328.643C254.92,328.643 254.92,321.143 250.083,321.143C245.247,321.143 245.247,328.643 250.083,328.643Z" style="fill:rgb(237,158,197);fill-rule:nonzero;"/>
    </g>
    <g transform="matrix(4.16667,0,0,4.16667,-721.575,-1215.38)">
        <path d="M228.685,328.505C232.54,329.333 238.104,327.335 241.658,325.904C242.302,329.924 241.038,333.284 236.551,334.137C233.567,334.623 228.841,332.484 228.665,328.753" style="fill:rgb(60,35,20);fill-rule:nonzero;"/>
    </g>
    <g transform="matrix(4.16667,0,0,4.16667,-721.575,-1215.38)">
        <path d="M228.519,329.107C233.061,329.884 237.665,328.164 241.824,326.507C241.568,326.361 241.312,326.216 241.056,326.07C241.507,329.423 240.552,332.273 237.103,333.369C233.967,334.365 229.679,332.111 229.29,328.753C229.198,327.962 227.947,327.953 228.04,328.753C228.508,332.787 232.701,335.189 236.551,334.762C241.294,334.234 242.819,329.881 242.261,325.738C242.219,325.425 241.779,325.188 241.492,325.302C237.585,326.858 233.124,328.633 228.851,327.902C228.063,327.768 227.726,328.972 228.519,329.107Z" style="fill:rgb(60,35,20);fill-rule:nonzero;"/>
    </g>
    <g transform="matrix(4.16667,0,0,4.16667,-721.575,-1215.38)">
        <path d="M238.958,330.113C237.568,329.611 236.016,330.119 235.761,331.716L235.676,331.742C234.795,330.819 232.934,330.444 231.974,331.468C231.599,331.867 231.414,332.354 231.31,332.866C232.93,333.914 234.979,334.391 236.551,334.137C238.545,333.758 239.901,332.88 240.736,331.673C240.293,330.982 239.725,330.392 238.958,330.113Z" style="fill:rgb(241,119,169);fill-rule:nonzero;"/>
    </g>
</svg>
