<?xml version="1.0" encoding="UTF-8" standalone="no"?>
<!DOCTYPE svg PUBLIC "-//W3C//DTD SVG 1.1//EN" "http://www.w3.org/Graphics/SVG/1.1/DTD/svg11.dtd">
<svg width="100%" height="100%" viewBox="0 0 589 964" version="1.1" xmlns="http://www.w3.org/2000/svg" xmlns:xlink="http://www.w3.org/1999/xlink" xml:space="preserve" xmlns:serif="http://www.serif.com/" style="fill-rule:evenodd;clip-rule:evenodd;stroke-linejoin:round;stroke-miterlimit:1.41421;">
    <g transform="matrix(4.16667,0,0,4.16667,-79.842,-162.502)">
        <path d="M123.916,255.44L101.036,255.44C101.036,240.711 101.036,226.801 98.688,211.984L121.281,208.332C123.916,224.965 123.916,240.458 123.916,255.44Z" style="fill:rgb(53,116,56);fill-rule:nonzero;"/>
    </g>
    <g transform="matrix(4.16667,0,0,4.16667,-79.842,-162.502)">
        <path d="M122.669,219.243C122.314,215.659 121.866,212.025 121.281,208.332L98.688,211.984C99.241,215.476 99.655,218.914 99.978,222.33C107.666,222.897 115.283,221.353 122.669,219.243Z" style="fill:rgb(73,157,69);fill-rule:nonzero;"/>
    </g>
    <g transform="matrix(4.16667,0,0,4.16667,-79.842,-162.502)">
        <path d="M123.311,227.266C123.235,226.016 123.149,224.761 123.05,223.499C115.664,225.569 107.986,227.07 100.323,226.561C100.363,227.106 100.383,227.646 100.417,228.193C108.07,228.23 115.721,228.32 123.311,227.266Z" style="fill:rgb(48,180,115);fill-rule:nonzero;"/>
    </g>
    <g transform="matrix(4.16667,0,0,4.16667,-79.842,-162.502)">
        <path d="M100.539,230.294C100.58,231.044 100.635,231.802 100.67,232.556C108.35,232.529 115.968,232.294 123.508,230.889C123.484,230.382 123.452,229.869 123.425,229.356C115.832,230.377 108.195,230.325 100.539,230.294Z" style="fill:rgb(73,157,69);fill-rule:nonzero;"/>
    </g>
    <g transform="matrix(4.16667,0,0,4.16667,-79.842,-162.502)">
        <path d="M111.974,238.161C115.936,237.981 119.855,238.3 123.739,237.599C123.718,236.766 123.709,235.941 123.681,235.104C116.138,236.442 108.514,236.725 100.834,236.755C100.855,237.447 100.862,238.14 100.879,238.833C104.614,239.011 108.21,238.336 111.974,238.161Z" style="fill:rgb(48,180,115);fill-rule:nonzero;"/>
    </g>
    <g transform="matrix(4.16667,0,0,4.16667,-79.842,-162.502)">
        <path d="M111.974,240.262C108.274,240.629 104.622,241.151 100.924,240.943C100.936,241.591 100.957,242.239 100.966,242.89C108.639,242.886 116.268,242.784 123.833,241.624C123.823,240.982 123.801,240.333 123.788,239.694C119.869,240.286 115.983,239.863 111.974,240.262Z" style="fill:rgb(73,157,69);fill-rule:nonzero;"/>
    </g>
    <g transform="matrix(4.16667,0,0,4.16667,-79.842,-162.502)">
        <path d="M123.896,248.574C123.891,247.659 123.895,246.758 123.887,245.838C116.318,246.938 108.688,247.085 101.012,247.091C101.017,247.782 101.015,248.489 101.019,249.186C108.649,249.767 116.261,248.869 123.896,248.574Z" style="fill:rgb(48,180,115);fill-rule:nonzero;"/>
    </g>
    <g transform="matrix(4.16667,0,0,4.16667,-79.842,-162.502)">
        <path d="M101.024,251.287C101.027,252.67 101.036,254.042 101.036,255.44L123.916,255.44C123.916,253.867 123.905,252.265 123.901,250.675C116.267,250.969 108.655,251.866 101.024,251.287Z" style="fill:rgb(73,157,69);fill-rule:nonzero;"/>
    </g>
    <g transform="matrix(4.16667,0,0,4.16667,-79.842,-162.502)">
        <path d="M123.916,255.44C123.916,253.867 123.905,252.265 123.901,250.675C118.061,250.9 112.233,251.478 106.401,251.478C104.612,251.478 102.824,251.423 101.034,251.288C101.033,250.585 101.031,249.886 101.029,249.186C102.823,249.323 104.615,249.377 106.408,249.377C112.236,249.377 118.059,248.8 123.896,248.574C123.891,247.659 123.895,246.758 123.887,245.838C116.321,246.937 108.692,247.085 101.019,247.091C101.011,245.686 100.999,244.286 100.98,242.89C108.648,242.886 116.273,242.783 123.833,241.624C123.823,240.982 123.801,240.333 123.788,239.694C119.869,240.286 115.983,239.863 111.974,240.262C108.857,240.571 105.773,240.991 102.667,240.991C102.095,240.991 101.523,240.976 100.949,240.945C100.936,240.241 100.922,239.537 100.905,238.834C101.324,238.854 101.742,238.863 102.159,238.863C105.441,238.863 108.642,238.316 111.974,238.161C115.936,237.981 119.855,238.3 123.739,237.599C123.718,236.766 123.709,235.941 123.681,235.104C116.143,236.442 108.524,236.724 100.849,236.755C100.807,235.355 100.755,233.956 100.691,232.556C108.364,232.529 115.975,232.293 123.508,230.889C123.484,230.382 123.452,229.869 123.425,229.356C117.266,230.184 111.077,230.306 104.874,230.306C103.442,230.306 102.01,230.3 100.577,230.294C100.539,229.594 100.497,228.895 100.452,228.194C102.166,228.202 103.88,228.213 105.593,228.213C111.517,228.213 117.433,228.083 123.311,227.266C123.235,226.016 123.149,224.761 123.05,223.499C116.647,225.294 110.024,226.66 103.383,226.661C102.369,226.661 101.355,226.629 100.34,226.562C100.238,225.155 100.121,223.745 99.987,222.331C101.073,222.411 102.158,222.448 103.241,222.448C109.819,222.448 116.33,221.054 122.669,219.243C122.314,215.659 121.866,212.025 121.281,208.332C123.895,224.835 123.915,240.216 123.916,255.089L123.916,255.44ZM98.791,212.647C98.788,212.629 98.786,212.613 98.783,212.595C98.786,212.612 98.788,212.63 98.791,212.647ZM98.782,212.591C98.751,212.389 98.72,212.187 98.688,211.984C98.72,212.187 98.751,212.389 98.782,212.591Z" style="fill:rgb(51,107,52);fill-rule:nonzero;"/>
    </g>
    <g transform="matrix(4.16667,0,0,4.16667,-79.842,-162.502)">
        <path d="M103.241,222.448C102.158,222.448 101.073,222.411 99.987,222.331C99.684,219.134 99.294,215.912 98.791,212.647C98.788,212.63 98.786,212.612 98.783,212.595C98.783,212.594 98.783,212.592 98.782,212.591C98.751,212.389 98.72,212.187 98.688,211.984L121.281,208.332C121.866,212.025 122.314,215.659 122.669,219.243C116.33,221.054 109.819,222.448 103.241,222.448Z" style="fill:rgb(68,144,66);fill-rule:nonzero;"/>
    </g>
    <g transform="matrix(4.16667,0,0,4.16667,-79.842,-162.502)">
        <path d="M105.593,228.213C103.88,228.213 102.166,228.202 100.452,228.194C100.417,227.65 100.379,227.106 100.34,226.562C101.355,226.629 102.369,226.661 103.383,226.661C110.024,226.66 116.647,225.294 123.05,223.499C123.149,224.761 123.235,226.016 123.311,227.266C117.433,228.083 111.517,228.213 105.593,228.213Z" style="fill:rgb(49,163,106);fill-rule:nonzero;"/>
    </g>
    <g transform="matrix(4.16667,0,0,4.16667,-79.842,-162.502)">
        <path d="M100.691,232.556C100.656,231.803 100.619,231.048 100.577,230.294C102.01,230.3 103.442,230.306 104.874,230.306C111.077,230.306 117.266,230.184 123.425,229.356C123.452,229.869 123.484,230.382 123.508,230.889C115.975,232.293 108.364,232.529 100.691,232.556Z" style="fill:rgb(68,144,66);fill-rule:nonzero;"/>
    </g>
    <g transform="matrix(4.16667,0,0,4.16667,-79.842,-162.502)">
        <path d="M102.159,238.863C101.742,238.863 101.324,238.854 100.905,238.834C100.889,238.14 100.87,237.448 100.849,236.755C108.524,236.724 116.143,236.442 123.681,235.104C123.709,235.941 123.718,236.766 123.739,237.599C119.855,238.3 115.936,237.981 111.974,238.161C108.642,238.316 105.441,238.863 102.159,238.863Z" style="fill:rgb(49,163,106);fill-rule:nonzero;"/>
    </g>
    <g transform="matrix(4.16667,0,0,4.16667,-79.842,-162.502)">
        <path d="M100.98,242.89C100.971,242.241 100.961,241.592 100.949,240.945C101.523,240.976 102.095,240.991 102.667,240.991C105.773,240.991 108.857,240.571 111.974,240.262C115.983,239.863 119.869,240.286 123.788,239.694C123.801,240.333 123.823,240.982 123.833,241.624C116.273,242.783 108.648,242.886 100.98,242.89Z" style="fill:rgb(68,144,66);fill-rule:nonzero;"/>
    </g>
    <g transform="matrix(4.16667,0,0,4.16667,-79.842,-162.502)">
        <path d="M106.408,249.377C104.615,249.377 102.823,249.323 101.029,249.186C101.027,248.487 101.023,247.788 101.019,247.091C108.692,247.085 116.321,246.937 123.887,245.838C123.895,246.758 123.891,247.659 123.896,248.574C118.059,248.8 112.236,249.377 106.408,249.377Z" style="fill:rgb(49,163,106);fill-rule:nonzero;"/>
    </g>
    <g transform="matrix(4.16667,0,0,4.16667,-79.842,-162.502)">
        <path d="M123.916,255.44L101.036,255.44C101.036,254.05 101.036,252.665 101.034,251.288C102.824,251.423 104.612,251.478 106.401,251.478C112.233,251.478 118.061,250.9 123.901,250.675C123.905,252.265 123.916,253.867 123.916,255.44Z" style="fill:rgb(68,144,66);fill-rule:nonzero;"/>
    </g>
    <g transform="matrix(4.16667,0,0,4.16667,-79.842,-162.502)">
        <path d="M89.986,219.046C74.264,219.046 58.83,215.574 44.445,208.634L54.309,187.782C77.062,198.762 102.278,198.773 127.233,187.819L136.354,209.012C121.115,215.702 105.413,219.046 89.986,219.046Z" style="fill:rgb(53,116,56);fill-rule:nonzero;"/>
    </g>
    <g transform="matrix(4.16667,0,0,4.16667,-79.842,-162.502)">
        <path d="M56.553,188.813C55.803,188.478 55.054,188.142 54.309,187.782L44.445,208.634C45.275,209.034 46.11,209.419 46.946,209.796C51.179,203.317 53.809,196.037 56.553,188.813Z" style="fill:rgb(73,157,69);fill-rule:nonzero;"/>
    </g>
    <g transform="matrix(4.16667,0,0,4.16667,-79.842,-162.502)">
        <path d="M58.459,189.635C55.722,196.857 53.084,204.146 48.885,210.638C49.29,210.81 49.693,210.992 50.1,211.16C53.783,204.632 58.146,197.556 60.315,190.402C59.694,190.158 59.077,189.891 58.459,189.635Z" style="fill:rgb(48,180,115);fill-rule:nonzero;"/>
    </g>
    <g transform="matrix(4.16667,0,0,4.16667,-79.842,-162.502)">
        <path d="M67.246,192.742C66.237,192.446 65.227,192.154 64.227,191.817C61.984,199.036 57.768,206.081 54.031,212.682C55.205,213.112 56.387,213.513 57.572,213.895C61.356,207.103 64.392,199.973 67.246,192.742Z" style="fill:rgb(73,157,69);fill-rule:nonzero;"/>
    </g>
    <g transform="matrix(4.16667,0,0,4.16667,-79.842,-162.502)">
        <path d="M69.253,193.296C66.393,200.549 63.361,207.707 59.598,214.529C60.846,214.907 62.097,215.269 63.355,215.601C66.786,208.617 68.848,201.063 72.167,194.031C71.191,193.812 70.222,193.553 69.253,193.296Z" style="fill:rgb(48,180,115);fill-rule:nonzero;"/>
    </g>
    <g transform="matrix(4.16667,0,0,4.16667,-79.842,-162.502)">
        <path d="M73.929,205.574C75.346,202.064 77.095,198.708 78.4,195.161C77.719,195.063 77.038,194.971 76.359,194.855L76.329,194.934C72.839,201.931 70.779,209.523 67.472,216.6C68.515,216.827 69.562,217.037 70.61,217.231C71.812,213.366 72.421,209.31 73.929,205.574Z" style="fill:rgb(73,157,69);fill-rule:nonzero;"/>
    </g>
    <g transform="matrix(4.16667,0,0,4.16667,-79.842,-162.502)">
        <path d="M80.516,195.44C78.983,199.606 76.439,203.521 75.363,207.808C74.536,211.103 73.763,214.392 72.698,217.602C74.198,217.852 75.703,218.068 77.212,218.257C77.768,210.44 80.66,203.158 82.865,195.691C82.08,195.622 81.298,195.53 80.516,195.44Z" style="fill:rgb(48,180,115);fill-rule:nonzero;"/>
    </g>
    <g transform="matrix(4.16667,0,0,4.16667,-79.842,-162.502)">
        <path d="M123.956,189.175C123.252,189.449 122.549,189.726 121.845,189.989L121.854,190.024C122.832,197.729 125.343,205.078 127.328,212.554C128.461,212.159 129.591,211.729 130.72,211.298C128.514,203.847 125.149,196.965 123.956,189.175Z" style="fill:rgb(73,157,69);fill-rule:nonzero;"/>
    </g>
    <g transform="matrix(4.16667,0,0,4.16667,-79.842,-162.502)">
        <path d="M132.668,210.543C133.899,210.049 135.128,209.549 136.354,209.012L127.233,187.819C126.797,188.012 126.362,188.185 125.926,188.37C126.97,196.198 130.431,203.109 132.668,210.543Z" style="fill:rgb(48,180,115);fill-rule:nonzero;"/>
    </g>
    <g transform="matrix(4.16667,0,0,4.16667,-79.842,-162.502)">
        <path d="M117.83,215.429C119.683,214.951 121.534,214.433 123.38,213.857C121.441,206.384 119.041,199.045 117.903,191.376C116.957,191.686 116.011,191.959 115.065,192.241C116.041,199.964 116.584,207.742 117.83,215.429Z" style="fill:rgb(48,180,115);fill-rule:nonzero;"/>
    </g>
    <g transform="matrix(4.16667,0,0,4.16667,-79.842,-162.502)">
        <path d="M115.814,215.927C114.576,208.263 114.033,200.518 113.061,192.813C111.966,193.113 110.872,193.408 109.778,193.659C111.043,201.396 110.844,209.212 110.776,217.028C112.457,216.703 114.136,216.328 115.814,215.927Z" style="fill:rgb(73,157,69);fill-rule:nonzero;"/>
    </g>
    <g transform="matrix(4.16667,0,0,4.16667,-79.842,-162.502)">
        <path d="M105.725,194.512C104.54,194.732 103.355,194.917 102.171,195.093C102.788,202.82 102.513,210.561 102.451,218.306C103.838,218.145 105.225,217.962 106.612,217.751C106.678,209.998 107.005,202.184 105.725,194.512Z" style="fill:rgb(48,180,115);fill-rule:nonzero;"/>
    </g>
    <g transform="matrix(4.16667,0,0,4.16667,-79.842,-162.502)">
        <path d="M100.111,195.356C99.205,195.47 98.297,195.588 97.393,195.667C97.244,203.421 96.261,211.12 96.064,218.869C97.498,218.788 98.933,218.67 100.369,218.53C100.427,210.796 100.706,203.073 100.111,195.356Z" style="fill:rgb(73,157,69);fill-rule:nonzero;"/>
    </g>
    <g transform="matrix(4.16667,0,0,4.16667,-79.842,-162.502)">
        <path d="M89.32,195.979C88.587,195.975 87.855,195.971 87.124,195.945L87.112,196.009C84.956,203.506 81.842,210.834 81.351,218.688C83.051,218.829 84.758,218.913 86.468,218.975C87.438,211.309 88.484,203.657 89.32,195.979Z" style="fill:rgb(73,157,69);fill-rule:nonzero;"/>
    </g>
    <g transform="matrix(4.16667,0,0,4.16667,-79.842,-162.502)">
        <path d="M91.401,195.966C90.564,203.662 89.514,211.333 88.543,219.017C89.024,219.023 89.504,219.046 89.986,219.046C90.624,219.046 91.262,219.032 91.9,219.021C92.086,211.306 93.059,203.641 93.226,195.928C92.617,195.951 92.01,195.955 91.401,195.966Z" style="fill:rgb(48,180,115);fill-rule:nonzero;"/>
    </g>
    <g transform="matrix(4.16667,0,0,4.16667,-79.842,-162.502)">
        <path d="M112.026,253.042C112.013,258.585 111.866,264.127 111.853,269.67C111.851,270.477 113.101,270.476 113.103,269.67C113.116,264.127 113.263,258.585 113.276,253.042C113.278,252.235 112.028,252.236 112.026,253.042Z" style="fill:rgb(140,198,64);fill-rule:nonzero;"/>
    </g>
    <g transform="matrix(4.16667,0,0,4.16667,-79.842,-162.502)">
        <path d="M108.906,254.268C108.755,259.195 108.833,264.118 107.888,268.979C107.735,269.767 108.939,270.103 109.093,269.312C110.061,264.341 110.001,259.309 110.156,254.268C110.181,253.461 108.93,253.464 108.906,254.268Z" style="fill:rgb(140,198,64);fill-rule:nonzero;"/>
    </g>
    <g transform="matrix(4.16667,0,0,4.16667,-79.842,-162.502)">
        <path d="M115.319,254.091C115.319,259.051 115.319,264.012 115.319,268.972C115.319,269.777 116.569,269.777 116.569,268.972C116.569,264.012 116.569,259.051 116.569,254.091C116.569,253.285 115.319,253.285 115.319,254.091Z" style="fill:rgb(140,198,64);fill-rule:nonzero;"/>
    </g>
    <g transform="matrix(4.16667,0,0,4.16667,-79.842,-162.502)">
        <path d="M105.093,254.791C105.158,259.58 103.952,264.223 103.533,268.972C103.462,269.775 104.713,269.769 104.783,268.972C105.203,264.218 106.408,259.587 106.343,254.791C106.333,253.985 105.083,253.984 105.093,254.791Z" style="fill:rgb(140,198,64);fill-rule:nonzero;"/>
    </g>
    <g transform="matrix(4.16667,0,0,4.16667,-79.842,-162.502)">
        <path d="M118.786,254.268C119.401,259.333 119.157,264.408 119.133,269.496C119.129,270.303 120.379,270.302 120.383,269.496C120.407,264.408 120.651,259.333 120.036,254.268C119.94,253.478 118.688,253.469 118.786,254.268Z" style="fill:rgb(140,198,64);fill-rule:nonzero;"/>
    </g>
    <g transform="matrix(4.16667,0,0,4.16667,-79.842,-162.502)">
        <path d="M101.973,254.268C101.495,259.27 101.392,264.312 99.915,269.153C99.679,269.926 100.886,270.254 101.121,269.485C102.63,264.536 102.734,259.382 103.223,254.268C103.3,253.465 102.049,253.473 101.973,254.268Z" style="fill:rgb(140,198,64);fill-rule:nonzero;"/>
    </g>
    <g transform="matrix(4.16667,0,0,4.16667,-79.842,-162.502)">
        <path d="M121.906,254.441C121.945,259.192 122.428,263.904 122.946,268.622C123.033,269.414 124.284,269.423 124.196,268.622C123.678,263.904 123.195,259.192 123.156,254.441C123.149,253.636 121.899,253.635 121.906,254.441Z" style="fill:rgb(140,198,64);fill-rule:nonzero;"/>
    </g>
    <g transform="matrix(4.16667,0,0,4.16667,-79.842,-162.502)">
        <path d="M100.536,257.291C108.221,257.291 115.905,257.302 123.588,257.464C126.814,257.533 126.808,252.531 123.588,252.464C115.905,252.302 108.221,252.29 100.536,252.29C97.311,252.29 97.311,257.291 100.536,257.291Z" style="fill:rgb(140,198,64);fill-rule:nonzero;"/>
    </g>
    <g transform="matrix(4.16667,0,0,4.16667,-79.842,-162.502)">
        <path d="M89.432,198.411C58.757,198.411 40.898,187.041 47.11,154.102C50.216,135.279 56.427,84.305 93.702,84.305C126.315,84.305 132.675,134.591 134.735,154.102C137.799,183.114 130.287,195.692 92.926,198.411C92.151,198.467 91.374,198.411 90.597,198.411" style="fill:rgb(166,122,77);fill-rule:nonzero;"/>
    </g>
    <g transform="matrix(4.16667,0,0,4.16667,-79.842,-162.502)">
        <path d="M40.249,42.298C39.349,65.419 37.062,92.159 61.658,101.583C65.698,103.134 69.846,94.338 65.835,92.798C44.686,84.694 44.067,61.858 44.821,42.468C44.997,37.96 40.424,37.789 40.249,42.298Z" style="fill:rgb(60,35,20);fill-rule:nonzero;"/>
    </g>
    <g transform="matrix(4.16667,0,0,4.16667,-79.842,-162.502)">
        <path d="M25.595,47.036C25.332,57.747 28.854,69.332 40.392,69.002C44.661,68.882 44.987,60.794 40.691,60.916C32.939,61.137 29.994,54.228 30.168,47.21C30.279,42.701 25.706,42.521 25.595,47.036Z" style="fill:rgb(60,35,20);fill-rule:nonzero;"/>
    </g>
    <g transform="matrix(4.16667,0,0,4.16667,-79.842,-162.502)">
        <path d="M54.841,52.773C53.722,60.073 50.047,66.724 43.272,69.855C39.337,71.677 42.448,78.926 46.363,77.118C55.397,72.94 57.934,62.589 59.413,52.945C60.097,48.493 55.517,48.373 54.841,52.773Z" style="fill:rgb(60,35,20);fill-rule:nonzero;"/>
    </g>
    <g transform="matrix(4.16667,0,0,4.16667,-79.842,-162.502)">
        <path d="M24.1,74.62C26.059,79.426 29.477,85.224 33.717,87.493C36.366,88.913 43.169,90.502 47.681,88.458C51.627,86.669 47.514,78.289 43.59,80.065C40.826,81.318 37.605,82.295 34.757,80.774C31.732,79.164 29.118,75.422 27.855,72.32C26.167,68.18 22.421,70.499 24.1,74.62Z" style="fill:rgb(60,35,20);fill-rule:nonzero;"/>
    </g>
    <g transform="matrix(4.16667,0,0,4.16667,-79.842,-162.502)">
        <path d="M139.322,42.298C140.222,65.419 142.509,92.159 117.913,101.583C113.873,103.134 109.724,94.338 113.735,92.798C134.885,84.694 135.504,61.858 134.75,42.468C134.574,37.96 139.147,37.789 139.322,42.298Z" style="fill:rgb(60,35,20);fill-rule:nonzero;"/>
    </g>
    <g transform="matrix(4.16667,0,0,4.16667,-79.842,-162.502)">
        <path d="M153.976,47.036C154.239,57.747 150.716,69.332 139.179,69.002C134.91,68.882 134.584,60.794 138.879,60.916C146.632,61.137 149.576,54.228 149.403,47.21C149.292,42.701 153.864,42.521 153.976,47.036Z" style="fill:rgb(60,35,20);fill-rule:nonzero;"/>
    </g>
    <g transform="matrix(4.16667,0,0,4.16667,-79.842,-162.502)">
        <path d="M124.729,52.773C125.849,60.073 129.522,66.724 136.299,69.855C140.233,71.677 137.122,78.926 133.208,77.118C124.173,72.94 121.637,62.589 120.157,52.945C119.474,48.493 124.054,48.373 124.729,52.773Z" style="fill:rgb(60,35,20);fill-rule:nonzero;"/>
    </g>
    <g transform="matrix(4.16667,0,0,4.16667,-79.842,-162.502)">
        <path d="M155.471,74.62C153.511,79.426 150.094,85.224 145.854,87.493C143.205,88.913 136.402,90.502 131.889,88.458C127.943,86.669 132.056,78.289 135.98,80.065C138.744,81.318 141.966,82.295 144.813,80.774C147.839,79.164 150.452,75.422 151.716,72.32C153.404,68.18 157.149,70.499 155.471,74.62Z" style="fill:rgb(60,35,20);fill-rule:nonzero;"/>
    </g>
    <g transform="matrix(4.16667,0,0,4.16667,-79.842,-162.502)">
        <path d="M64.002,101.576C59.452,98.558 52.042,97.246 46.582,97.9C42.422,98.426 36.052,100.92 32.542,103.153C29.032,105.384 23.962,108.537 21.622,111.815C28.382,115.362 37.222,117.593 44.762,116.805C49.572,116.281 56.592,114.181 59.452,109.849" style="fill:rgb(166,122,77);fill-rule:nonzero;"/>
    </g>
    <g transform="matrix(4.16667,0,0,4.16667,-79.842,-162.502)">
        <path d="M65.264,99.418C50.747,90.615 30.021,97.281 19.855,110.048C18.919,111.222 18.789,113.186 20.36,113.974C32.4,120.011 52.113,123.588 61.611,111.11C63.565,108.543 59.219,106.057 57.293,108.587C49.706,118.556 32.058,114.257 22.884,109.657C23.053,110.966 23.221,112.274 23.39,113.583C32.148,102.584 50.064,96.048 62.74,103.735C65.505,105.412 68.016,101.086 65.264,99.418Z" style="fill:rgb(166,122,77);fill-rule:nonzero;"/>
    </g>
    <g transform="matrix(4.16667,0,0,4.16667,-79.842,-162.502)">
        <path d="M57.009,106.633C53.96,104.608 48.996,103.729 45.338,104.168C42.55,104.521 38.283,106.191 35.931,107.688C33.58,109.183 30.182,111.293 28.614,113.491C33.144,115.869 39.066,117.365 44.118,116.835C47.341,116.485 52.044,115.076 53.96,112.174" style="fill:rgb(191,150,104);fill-rule:nonzero;"/>
    </g>
    <g transform="matrix(4.16667,0,0,4.16667,-79.842,-162.502)">
        <path d="M115.569,101.576C120.119,98.558 127.529,97.246 132.989,97.9C137.149,98.426 143.519,100.92 147.029,103.153C150.539,105.384 155.609,108.537 157.949,111.815C151.188,115.362 142.349,117.593 134.809,116.805C129.998,116.281 122.979,114.181 120.119,109.849" style="fill:rgb(166,122,77);fill-rule:nonzero;"/>
    </g>
    <g transform="matrix(4.16667,0,0,4.16667,-79.842,-162.502)">
        <path d="M116.831,103.735C129.507,96.048 147.422,102.584 156.181,113.583C156.35,112.274 156.518,110.966 156.687,109.657C147.513,114.256 129.865,118.556 122.277,108.587C120.352,106.057 116.006,108.543 117.96,111.11C127.457,123.589 147.171,120.011 159.21,113.974C160.782,113.186 160.651,111.221 159.716,110.048C149.55,97.281 128.824,90.615 114.307,99.418C111.555,101.086 114.066,105.412 116.831,103.735Z" style="fill:rgb(166,122,77);fill-rule:nonzero;"/>
    </g>
    <g transform="matrix(4.16667,0,0,4.16667,-79.842,-162.502)">
        <path d="M122.562,106.633C125.61,104.608 130.575,103.729 134.233,104.168C137.02,104.521 141.288,106.191 143.64,107.688C145.991,109.183 149.388,111.293 150.956,113.491C146.427,115.869 140.504,117.365 135.452,116.835C132.229,116.485 127.526,115.076 125.61,112.174" style="fill:rgb(191,150,104);fill-rule:nonzero;"/>
    </g>
    <g transform="matrix(4.16667,0,0,4.16667,-79.842,-162.502)">
        <path d="M112.449,174.283C112.449,181.579 103.235,187.493 91.868,187.493C80.502,187.493 71.288,181.579 71.288,174.283C71.288,166.99 80.502,161.078 91.868,161.078C103.235,161.078 112.449,166.99 112.449,174.283Z" style="fill:rgb(189,32,47);fill-rule:nonzero;"/>
    </g>
    <g transform="matrix(4.16667,0,0,4.16667,-79.842,-162.502)">
        <path d="M101.405,162.586C105.162,168.194 105.914,176.069 99.825,180.578C94.11,184.81 86.478,185.377 79.256,184.705C82.742,186.445 87.11,187.493 91.868,187.493C103.235,187.493 112.449,181.579 112.449,174.283C112.449,169.201 107.967,164.796 101.405,162.586Z" style="fill:rgb(139,23,35);fill-rule:nonzero;"/>
    </g>
    <g transform="matrix(4.16667,0,0,4.16667,-79.842,-162.502)">
        <path d="M79.706,143.332C82.93,143.332 82.93,138.332 79.706,138.332C76.481,138.332 76.481,143.332 79.706,143.332Z" style="fill:rgb(60,35,20);fill-rule:nonzero;"/>
    </g>
    <g transform="matrix(4.16667,0,0,4.16667,-79.842,-162.502)">
        <path d="M102.717,143.332C105.941,143.332 105.941,138.332 102.717,138.332C99.492,138.332 99.492,143.332 102.717,143.332Z" style="fill:rgb(60,35,20);fill-rule:nonzero;"/>
    </g>
    <g transform="matrix(4.16667,0,0,4.16667,-79.842,-162.502)">
        <path d="M62.059,160.885C68.508,160.885 68.508,150.885 62.059,150.885C55.61,150.885 55.61,160.885 62.059,160.885Z" style="fill:rgb(237,158,197);fill-rule:nonzero;"/>
    </g>
    <g transform="matrix(4.16667,0,0,4.16667,-79.842,-162.502)">
        <path d="M120.646,160.885C127.095,160.885 127.095,150.885 120.646,150.885C114.197,150.885 114.197,160.885 120.646,160.885Z" style="fill:rgb(237,158,197);fill-rule:nonzero;"/>
    </g>
    <g transform="matrix(4.16667,0,0,4.16667,-79.842,-162.502)">
        <path d="M82.602,81.858C67.06,81.686 64.431,93.791 63.296,102.611C61.015,120.353 73.322,118.775 76.375,105.127C76.998,119.593 91.321,127.14 93.189,108.9C93.812,120.22 102.531,122.109 104.399,110.159C115.609,126.51 122.459,101.354 116.231,91.92C110.626,82.488 92.566,81.23 82.602,81.858Z" style="fill:rgb(137,93,59);fill-rule:nonzero;"/>
    </g>
    <g transform="matrix(4.16667,0,0,4.16667,-79.842,-162.502)">
        <path d="M72.8,89.542C72.178,90.513 71.681,91.545 71.26,92.603C70.835,93.656 70.489,94.741 70.291,95.835C70.101,96.923 70.034,98.042 70.307,99.016C70.376,99.256 70.487,99.474 70.578,99.697C70.728,99.881 70.817,100.105 70.996,100.257L71.248,100.494L71.309,100.554L71.324,100.569L71.332,100.576C71.22,100.492 71.304,100.555 71.28,100.537L71.286,100.541L71.332,100.569L71.515,100.682L71.698,100.793L71.841,100.851C71.931,100.892 72.025,100.932 72.137,100.958C72.973,101.221 73.849,100.925 74.647,100.315C75.441,99.711 76.138,98.878 76.751,97.988C77.365,97.094 77.913,96.134 78.409,95.149C78.897,94.165 79.347,93.132 79.673,92.134C79.873,91.525 80.528,91.193 81.137,91.392C81.579,91.537 81.875,91.921 81.928,92.354L81.931,92.386C82.143,94.133 82.17,95.768 82.249,97.378C82.285,98.182 82.337,98.973 82.415,99.751C82.494,100.528 82.614,101.284 82.766,102.019C82.861,102.374 82.95,102.733 83.055,103.079C83.191,103.401 83.282,103.76 83.445,104.054C83.604,104.349 83.736,104.67 83.941,104.909L84.218,105.296L84.545,105.614C84.739,105.857 85.022,105.973 85.253,106.162C85.505,106.322 85.809,106.406 86.078,106.547C86.774,106.742 87.28,106.799 87.832,106.729C88.362,106.653 88.818,106.433 89.245,106.053C89.67,105.673 90.048,105.135 90.362,104.521C90.999,103.287 91.371,101.786 91.668,100.277C92.232,97.216 92.327,94.016 92.332,90.768L95.215,90.768C95.229,92.548 95.445,94.457 95.84,96.24C96.05,97.13 96.31,97.998 96.639,98.81C96.817,99.2 96.994,99.594 97.211,99.934C97.307,100.123 97.431,100.266 97.545,100.421C97.655,100.588 97.778,100.722 97.908,100.834C98.029,100.969 98.157,101.083 98.291,101.156L98.483,101.296L98.687,101.377L98.888,101.467L98.901,101.473C98.926,101.478 98.691,101.436 98.793,101.454L98.81,101.457L98.855,101.464L98.945,101.479L99.126,101.509L99.487,101.568L99.672,101.554C99.908,101.578 100.226,101.468 100.471,101.358C100.708,101.19 100.971,101.013 101.168,100.696C101.385,100.411 101.552,100.043 101.705,99.665C101.838,99.271 101.957,98.86 102.031,98.428C102.182,97.568 102.236,96.66 102.177,95.782L102.173,95.712C102.137,95.183 102.538,94.724 103.068,94.688C103.584,94.654 104.032,95.035 104.088,95.544C104.255,97.083 104.66,98.7 105.229,100.176C105.372,100.548 105.538,100.908 105.708,101.26C105.881,101.613 106.071,101.952 106.286,102.267C106.382,102.438 106.508,102.57 106.624,102.718C106.736,102.871 106.858,103.009 106.995,103.122C107.25,103.383 107.543,103.572 107.848,103.71C108.156,103.851 108.486,103.887 108.828,103.887L109.348,103.798C109.43,103.775 109.741,103.66 109.85,103.586C110.109,103.444 110.413,103.18 110.645,102.888C110.885,102.592 111.085,102.251 111.252,101.889C111.581,101.161 111.786,100.359 111.898,99.544C112.005,98.728 112.008,97.886 111.8,97.071C112.114,97.852 112.228,98.713 112.228,99.565C112.23,100.419 112.111,101.282 111.836,102.118C111.697,102.536 111.515,102.946 111.268,103.332C111.012,103.719 110.728,104.071 110.278,104.379C110.042,104.539 109.957,104.583 109.655,104.715L108.948,104.903C108.457,104.96 107.941,104.943 107.46,104.778C106.989,104.622 106.544,104.375 106.183,104.072C105.984,103.931 105.814,103.77 105.659,103.599C105.5,103.431 105.324,103.269 105.195,103.084C104.904,102.73 104.649,102.358 104.417,101.976C104.186,101.595 103.979,101.202 103.791,100.805C103.045,99.203 102.504,97.573 102.179,95.796L104.09,95.559C104.159,96.09 104.21,96.621 104.211,97.151C104.226,97.683 104.183,98.215 104.116,98.749C104.051,99.284 103.931,99.821 103.775,100.358C103.595,100.895 103.385,101.436 103.044,101.954C102.738,102.481 102.248,102.959 101.69,103.348C101.082,103.695 100.458,103.941 99.712,103.961C99.53,103.97 99.336,103.976 99.165,103.973L98.801,103.932L98.62,103.912L98.529,103.901L98.483,103.896L98.347,103.873L98.317,103.864L97.83,103.706C97.669,103.648 97.502,103.598 97.351,103.526L96.926,103.273C96.628,103.11 96.386,102.908 96.166,102.691C95.924,102.484 95.714,102.263 95.542,102.029C95.356,101.799 95.164,101.569 95.026,101.327C94.706,100.851 94.465,100.362 94.225,99.872C93.788,98.886 93.46,97.889 93.191,96.888C92.939,95.886 92.74,94.879 92.59,93.867C92.444,92.851 92.342,91.841 92.332,90.768C92.324,89.972 92.963,89.321 93.76,89.313C94.556,89.305 95.207,89.944 95.215,90.741L95.215,90.768C95.241,94.053 95.189,97.423 94.604,100.808C94.297,102.503 93.865,104.214 92.994,105.891C92.554,106.723 91.991,107.556 91.189,108.261C90.399,108.967 89.321,109.487 88.229,109.619C87.157,109.768 86.013,109.564 85.148,109.287C84.683,109.073 84.197,108.901 83.761,108.625C83.345,108.318 82.878,108.061 82.549,107.662L82.022,107.1C81.871,106.899 81.738,106.689 81.598,106.482C81.295,106.073 81.115,105.633 80.906,105.199C80.694,104.765 80.587,104.322 80.428,103.883C80.308,103.444 80.212,103.005 80.112,102.567C79.958,101.696 79.85,100.832 79.79,99.98C79.731,99.129 79.702,98.287 79.69,97.457C79.658,95.801 79.731,94.159 79.616,92.65L81.874,92.902C81.425,94.066 80.897,95.117 80.313,96.163C79.724,97.2 79.082,98.212 78.318,99.157C77.561,100.1 76.71,101.008 75.621,101.725C75.076,102.077 74.458,102.378 73.761,102.518C73.069,102.661 72.298,102.608 71.644,102.335C71.479,102.278 71.314,102.194 71.152,102.099L70.912,101.959L70.737,101.83L70.565,101.701L70.522,101.669L70.455,101.618L70.443,101.606L70.421,101.582L70.335,101.486L69.992,101.099C69.761,100.845 69.637,100.516 69.465,100.228C69.359,99.915 69.242,99.599 69.182,99.282C68.954,98.003 69.155,96.779 69.487,95.644C69.826,94.505 70.3,93.432 70.854,92.41C71.419,91.396 72.059,90.421 72.8,89.542Z" style="fill:rgb(115,74,39);fill-rule:nonzero;"/>
    </g>
</svg>
