<?xml version="1.0" encoding="UTF-8" standalone="no"?>
<!DOCTYPE svg PUBLIC "-//W3C//DTD SVG 1.1//EN" "http://www.w3.org/Graphics/SVG/1.1/DTD/svg11.dtd">
<svg width="100%" height="100%" viewBox="0 0 667 721" version="1.1" xmlns="http://www.w3.org/2000/svg" xmlns:xlink="http://www.w3.org/1999/xlink" xml:space="preserve" xmlns:serif="http://www.serif.com/" style="fill-rule:evenodd;clip-rule:evenodd;stroke-linejoin:round;stroke-miterlimit:1.41421;">
    <g transform="matrix(4.16667,0,0,4.16667,-1346.79,-1149.93)">
        <path d="M347.286,321.516C340.075,336.078 337.191,357.198 338.634,372.489C340.797,393.607 358.823,401.618 377.57,403.805C395.598,405.988 418.672,400.891 429.488,384.871C439.582,368.85 433.093,341.178 426.603,325.884C425.883,323.7 425.162,321.516 424.439,319.331L347.286,321.516Z" style="fill:rgb(233,193,167);fill-rule:nonzero;"/>
    </g>
    <g transform="matrix(4.16667,0,0,4.16667,-1346.79,-1149.93)">
        <path d="M336.36,328.176C339.966,358.032 324.103,399.54 342.85,425.755C365.203,457.794 438.031,452.698 443.078,409.006C445.242,391.529 442.357,375.507 439.473,358.758C437.309,350.021 431.541,304.871 422.167,332.544C416.398,348.563 428.656,369.684 412.793,382.062C402.698,390.071 378.183,389.343 365.924,385.704C350.781,381.332 347.897,370.408 347.897,355.846C347.897,349.293 349.34,339.824 347.897,333.999C346.455,328.176 339.966,319.436 336.36,329.63L336.36,328.176Z" style="fill:white;fill-rule:nonzero;"/>
    </g>
    <g transform="matrix(4.16667,0,0,4.16667,-1346.79,-1149.93)">
        <path d="M333.86,328.176C336.56,352.53 328.992,376.782 331.606,401.183C333.641,420.165 343.773,435.571 361.361,443.218C388.831,455.16 432.625,449.213 443.777,417.411C447.958,405.489 446.618,391.28 445.157,379.015C444.002,369.316 442.117,359.745 440.305,350.158C439.35,345.101 436.084,317.082 426.097,321.646C419.998,324.434 418.416,335.712 418.047,341.349C417.329,352.337 421.52,364.423 416.03,374.687C410.439,385.139 395.697,385.888 385.358,385.811C375.21,385.735 362.404,384.566 355.334,376.407C346.027,365.669 352.497,348.354 350.741,335.844C350.06,330.986 347.88,326.339 343.844,323.408C339.2,320.035 335.479,325.205 333.949,328.965C332.734,331.953 337.572,333.24 338.771,330.295C342.02,322.31 345.892,336.593 346.018,339.312C346.315,345.713 345.302,352.122 345.434,358.533C345.62,367.64 347.614,376.973 354.951,383.01C362.399,389.139 373.363,390.239 382.63,390.728C392.501,391.249 403.676,390.477 412.392,385.385C421.505,380.06 423.964,369.796 423.81,359.989C423.638,349.046 421.343,338.426 426.656,328.227C426.967,327.63 428.213,326.159 428.029,326.178C427.776,326.203 428.568,326.879 428.961,327.513C430.663,330.259 431.465,333.639 432.294,336.724C434.091,343.407 435.2,350.251 436.543,357.033C439.186,370.372 441.35,383.916 441.328,397.546C441.313,407.905 439.905,418.054 433.302,426.354C422.779,439.578 404.346,444.123 388.184,443.85C371.578,443.569 353.946,437.44 344.215,423.344C330.059,402.838 337.133,373.449 338.902,350.489C339.475,343.061 339.683,335.593 338.86,328.176C338.51,325.008 333.506,324.974 333.86,328.176Z" style="fill:white;fill-rule:nonzero;"/>
    </g>
    <g transform="matrix(4.16667,0,0,4.16667,-1346.79,-1149.93)">
        <path d="M372.414,356.159C375.639,356.159 375.639,351.159 372.414,351.159C369.189,351.159 369.189,356.159 372.414,356.159Z" style="fill:rgb(60,35,20);fill-rule:nonzero;"/>
    </g>
    <g transform="matrix(4.16667,0,0,4.16667,-1346.79,-1149.93)">
        <path d="M396.93,356.891C400.154,356.891 400.154,351.891 396.93,351.891C393.705,351.891 393.705,356.891 396.93,356.891Z" style="fill:rgb(60,35,20);fill-rule:nonzero;"/>
    </g>
    <g transform="matrix(4.16667,0,0,4.16667,-1346.79,-1149.93)">
        <path d="M360.82,350.245C366.573,348.811 372.324,347.649 378.238,348.79C381.389,349.396 382.732,344.578 379.568,343.968C372.721,342.648 366.171,343.759 359.49,345.423C356.363,346.202 357.69,351.024 360.82,350.245Z" style="fill:rgb(240,240,240);fill-rule:nonzero;"/>
    </g>
    <g transform="matrix(4.16667,0,0,4.16667,-1346.79,-1149.93)">
        <path d="M389.313,348.97C395.278,348.221 401.845,347.687 407.576,349.837C410.602,350.971 411.896,346.137 408.906,345.015C402.77,342.714 395.698,343.167 389.313,343.97C386.158,344.366 386.12,349.371 389.313,348.97Z" style="fill:rgb(240,240,240);fill-rule:nonzero;"/>
    </g>
    <g transform="matrix(4.16667,0,0,4.16667,-1346.79,-1149.93)">
        <path d="M359.798,368.856C366.246,368.856 366.246,358.856 359.798,358.856C353.35,358.856 353.35,368.856 359.798,368.856Z" style="fill:rgb(237,158,197);fill-rule:nonzero;"/>
    </g>
    <g transform="matrix(4.16667,0,0,4.16667,-1346.79,-1149.93)">
        <path d="M409.191,367.032C415.64,367.032 415.64,357.032 409.191,357.032C402.743,357.032 402.743,367.032 409.191,367.032Z" style="fill:rgb(237,158,197);fill-rule:nonzero;"/>
    </g>
    <g transform="matrix(4.16667,0,0,4.16667,-1346.79,-1149.93)">
        <path d="M385.032,371.139C369.89,353.659 350.421,378.42 338.163,383.519C351.863,390.802 387.916,402.453 385.032,371.868" style="fill:rgb(240,240,240);fill-rule:nonzero;"/>
    </g>
    <g transform="matrix(4.16667,0,0,4.16667,-1346.79,-1149.93)">
        <path d="M386.8,369.371C370.093,351.153 352.387,374.496 336.901,381.359C335.186,382.12 335.352,384.865 336.901,385.678C346.638,390.779 358.02,394.662 369.119,394.368C382.271,394.02 388.505,384.334 387.532,371.868C387.283,368.676 382.281,368.651 382.532,371.868C382.924,376.884 382.705,382.218 378.949,385.978C375.795,389.134 370.673,389.474 366.492,389.369C357.212,389.137 347.574,385.63 339.425,381.359C339.425,382.799 339.425,384.238 339.425,385.678C352.399,379.926 369.233,357.606 383.265,372.906C385.448,375.287 388.975,371.742 386.8,369.371Z" style="fill:rgb(240,240,240);fill-rule:nonzero;"/>
    </g>
    <g transform="matrix(4.16667,0,0,4.16667,-1346.79,-1149.93)">
        <path d="M388.08,371.139C403.223,353.659 422.692,378.42 434.95,383.519C421.25,390.802 385.197,402.453 388.08,371.868" style="fill:rgb(240,240,240);fill-rule:nonzero;"/>
    </g>
    <g transform="matrix(4.16667,0,0,4.16667,-1346.79,-1149.93)">
        <path d="M389.848,372.906C403.879,357.606 420.714,379.926 433.688,385.678C433.688,384.238 433.688,382.799 433.688,381.359C425.667,385.563 416.584,388.681 407.515,389.325C403.195,389.633 398.256,389.248 394.724,386.474C390.355,383.043 390.187,376.92 390.58,371.868C390.831,368.651 385.829,368.676 385.58,371.868C384.618,384.209 390.41,393.245 403.141,394.321C414.307,395.266 426.474,390.78 436.212,385.678C437.762,384.865 437.928,382.12 436.212,381.359C420.727,374.496 403.02,351.152 386.313,369.371C384.138,371.742 387.664,375.287 389.848,372.906Z" style="fill:rgb(240,240,240);fill-rule:nonzero;"/>
    </g>
    <g transform="matrix(4.16667,0,0,4.16667,-1346.79,-1149.93)">
        <path d="M397.73,366.121C397.73,370.345 391.92,373.766 384.751,373.766C377.582,373.766 371.771,370.345 371.771,366.121C371.771,361.897 377.582,358.476 384.751,358.476C391.92,358.476 397.73,361.897 397.73,366.121Z" style="fill:rgb(236,173,150);fill-rule:nonzero;"/>
    </g>
    <g transform="matrix(4.16667,0,0,4.16667,-1346.79,-1149.93)">
        <path d="M374.664,378.063C374.664,378.063 375.132,378.277 375.851,378.713C376.032,378.82 376.22,378.947 376.427,379.084C376.634,379.169 376.858,379.262 377.098,379.359C377.553,379.541 377.959,379.734 378.534,379.889C378.803,379.969 379.056,380.069 379.317,380.158C379.611,380.207 379.888,380.279 380.17,380.339C380.313,380.367 380.448,380.405 380.582,380.446C380.725,380.475 380.879,380.483 381.025,380.503C381.326,380.526 381.604,380.6 381.893,380.645C382.512,380.645 383.081,380.772 383.708,380.733C384.312,380.795 384.936,380.698 385.553,380.72C386.166,380.623 386.795,380.636 387.398,380.501C388.028,380.458 388.598,380.271 389.219,380.19C389.511,380.116 389.782,380.007 390.085,379.949C390.234,379.914 390.383,379.88 390.53,379.846C390.663,379.792 390.795,379.735 390.937,379.692C391.217,379.603 391.49,379.503 391.779,379.421C392.045,379.304 392.303,379.191 392.55,379.082C393.099,378.89 393.547,378.622 393.988,378.381C394.223,378.26 394.44,378.146 394.643,378.041C394.832,377.912 395.006,377.795 395.163,377.688C395.825,377.254 396.295,376.972 396.295,376.972C396.295,376.972 396.396,377.446 396.41,378.338C396.416,378.563 396.406,378.808 396.393,379.081C396.353,379.34 396.284,379.612 396.216,379.916C396.147,380.22 396.048,380.534 395.947,380.881C395.849,381.229 395.652,381.526 395.485,381.883C395.304,382.227 395.099,382.585 394.872,382.948C394.618,383.279 394.332,383.606 394.036,383.955C393.89,384.132 393.729,384.298 393.567,384.47C393.391,384.618 393.212,384.77 393.031,384.922C392.668,385.231 392.269,385.516 391.861,385.808C391.006,386.284 390.096,386.817 389.089,387.094C388.101,387.459 387.039,387.578 385.982,387.706C384.916,387.707 383.847,387.718 382.813,387.468C381.774,387.308 380.793,386.885 379.881,386.498C379.438,386.249 379.006,386.002 378.607,385.729C378.199,385.478 377.824,385.191 377.497,384.856C377.164,384.534 376.842,384.234 376.557,383.924C376.302,383.568 376.058,383.236 375.849,382.904C375.41,382.287 375.12,381.547 374.918,380.938C374.823,380.631 374.724,380.356 374.678,380.102C374.662,379.854 374.645,379.628 374.642,379.416C374.619,378.576 374.664,378.063 374.664,378.063Z" style="fill:rgb(60,35,20);fill-rule:nonzero;"/>
    </g>
    <g transform="matrix(4.16667,0,0,4.16667,-1346.79,-1149.93)">
        <path d="M339.56,352.614C334.287,350.431 324.417,348.792 323.335,356.573C321.983,365.038 333.882,363.947 338.749,362.854" style="fill:rgb(233,193,167);fill-rule:nonzero;"/>
    </g>
    <g transform="matrix(4.16667,0,0,4.16667,-1346.79,-1149.93)">
        <path d="M327.344,357.31C327.344,357.31 327.447,357.184 327.639,356.995C327.736,356.903 327.852,356.786 327.993,356.675C328.139,356.563 328.272,356.414 328.482,356.315C328.885,356.112 329.406,355.81 329.979,355.726C330.268,355.672 330.567,355.601 330.878,355.589C331.189,355.587 331.508,355.606 331.825,355.625C332.142,355.655 332.447,355.756 332.748,355.837C333.054,355.907 333.33,356.042 333.588,356.186C333.844,356.33 334.102,356.45 334.305,356.626C334.512,356.795 334.695,356.97 334.859,357.13C335.198,357.436 335.385,357.799 335.529,358.021C335.665,358.258 335.726,358.403 335.726,358.403C335.726,358.403 335.559,358.389 335.295,358.344C335.027,358.308 334.689,358.195 334.281,358.122C334.077,358.084 333.862,358.042 333.649,357.982C333.438,357.916 333.198,357.907 332.974,357.85C332.747,357.794 332.517,357.742 332.278,357.72C332.041,357.7 331.813,357.618 331.572,357.608C331.333,357.588 331.096,357.567 330.859,357.526C330.622,357.505 330.385,357.513 330.15,357.486C329.913,357.456 329.688,357.441 329.476,357.448C329.261,357.444 329.046,357.422 328.841,357.401C328.64,357.381 328.425,357.405 328.246,357.393C328.067,357.396 327.903,357.378 327.771,357.368C327.503,357.342 327.344,357.31 327.344,357.31Z" style="fill:rgb(236,173,150);fill-rule:nonzero;"/>
    </g>
    <g transform="matrix(4.16667,0,0,4.16667,-1346.79,-1149.93)">
        <path d="M433.795,352.75C439.878,348.928 451.371,346.879 453.128,356.437C455.021,366.541 442.041,368.18 435.416,364.629" style="fill:rgb(233,193,167);fill-rule:nonzero;"/>
    </g>
    <g transform="matrix(4.16667,0,0,4.16667,-1346.79,-1149.93)">
        <path d="M448.482,357.583C448.482,357.583 448.298,357.571 447.991,357.523C447.841,357.494 447.65,357.467 447.455,357.444C447.262,357.419 447.043,357.392 446.805,357.36C446.326,357.314 445.795,357.244 445.237,357.224C444.683,357.193 444.104,357.179 443.544,357.229C443.26,357.229 442.991,357.291 442.718,357.313C442.457,357.371 442.188,357.402 441.946,357.479C441.688,357.528 441.471,357.633 441.234,357.703C441.029,357.811 440.787,357.875 440.608,357.997C440.219,358.205 439.893,358.448 439.667,358.638C439.443,358.83 439.289,358.948 439.289,358.948C439.289,358.948 439.283,358.772 439.317,358.448C439.329,358.283 439.374,358.093 439.457,357.881C439.522,357.657 439.633,357.42 439.798,357.184C439.938,356.924 440.158,356.703 440.393,356.454C440.647,356.248 440.925,356.002 441.252,355.847C441.892,355.481 442.655,355.284 443.407,355.234C443.786,355.203 444.159,355.228 444.524,355.262C444.885,355.319 445.241,355.371 445.566,355.485C446.228,355.678 446.794,355.984 447.233,356.301C447.459,356.437 447.65,356.627 447.813,356.771C447.984,356.913 448.097,357.062 448.192,357.183C448.383,357.428 448.482,357.583 448.482,357.583Z" style="fill:rgb(236,173,150);fill-rule:nonzero;"/>
    </g>
    <g transform="matrix(4.16667,0,0,4.16667,-1346.79,-1149.93)">
        <path d="M393.02,436.961C392.952,436.961 392.884,436.96 392.815,436.957C391.406,436.911 390.092,436.416 389.09,435.739C388.07,435.067 387.208,434.274 386.503,433.424L385.969,432.785L385.5,432.123C385.173,431.685 384.902,431.228 384.639,430.768C384.357,430.314 384.118,429.849 383.891,429.38C383.648,428.915 383.425,428.445 383.232,427.969C383.223,427.948 383.214,427.928 383.205,427.908C382.627,428.673 381.796,429.392 380.781,429.721C380.194,429.922 379.603,430.003 379.032,430.003C378.535,430.003 378.055,429.941 377.607,429.842C376.649,429.609 375.822,429.21 375.071,428.752C374.33,428.283 373.667,427.749 373.07,427.17C372.477,426.589 371.936,425.972 371.451,425.323C370.963,424.677 370.534,423.998 370.139,423.305C369.747,422.608 369.408,421.891 369.099,421.163C369.045,421.025 368.992,420.887 368.939,420.749C368.327,422.183 367.566,423.551 366.63,424.815C365.271,426.646 363.559,428.349 361.3,429.314C360.316,429.732 359.228,429.972 358.139,429.972C357.987,429.972 357.835,429.968 357.683,429.958C356.441,429.886 355.252,429.504 354.209,428.942L353.426,428.462C353.165,428.301 352.987,428.14 352.765,427.978C352.572,427.844 352.281,427.604 352.042,427.367C351.821,427.12 351.603,426.866 351.444,426.598C350.761,425.525 350.489,424.401 350.261,423.308C349.854,421.109 349.804,418.946 349.823,416.797C349.847,414.648 349.947,412.515 350.027,410.385C350.11,408.255 350.22,406.125 350,404C350.421,406.098 350.516,408.251 350.635,410.382C350.729,412.517 350.792,414.649 350.936,416.765C351.095,418.872 351.271,420.992 351.78,422.967C352.042,423.935 352.375,424.906 352.903,425.603C353.025,425.788 353.175,425.927 353.314,426.069C353.468,426.194 353.588,426.293 353.843,426.452C354.061,426.589 354.298,426.77 354.501,426.87L355.105,427.185C355.967,427.578 356.867,427.814 357.761,427.817C357.778,427.818 357.796,427.818 357.813,427.818C358.689,427.818 359.551,427.602 360.358,427.211C362.012,426.408 363.393,424.943 364.473,423.307C365.554,421.658 366.386,419.809 366.916,417.898C367.232,416.767 367.451,415.596 367.522,414.455C367.519,414.412 367.516,414.368 367.514,414.324C367.427,413.55 367.457,412.773 367.435,412C367.409,411.137 368.089,410.417 368.951,410.392C368.967,410.391 368.983,410.391 368.998,410.391C369.803,410.391 370.471,411.002 370.553,411.794L370.554,411.806C370.597,412.244 370.62,412.678 370.623,413.107C370.64,413.415 370.664,413.721 370.711,414.025C370.772,414.698 370.901,415.359 371.028,416.018C371.187,416.669 371.326,417.327 371.552,417.955C371.74,418.596 371.995,419.209 372.246,419.821C372.52,420.424 372.814,421.013 373.147,421.577C373.484,422.136 373.844,422.68 374.243,423.183C374.639,423.689 375.07,424.156 375.523,424.58C375.979,425.003 376.462,425.369 376.955,425.666C377.449,425.952 377.953,426.168 378.412,426.268C378.601,426.302 378.777,426.318 378.939,426.318C379.167,426.318 379.366,426.286 379.53,426.227C379.811,426.136 380.023,425.909 380.253,425.574C380.49,425.258 380.638,424.729 380.77,424.203C380.828,423.93 380.849,423.626 380.899,423.34C380.927,423.039 380.93,422.723 380.949,422.415C380.941,421.78 380.938,421.137 380.849,420.473C380.846,420.44 380.843,420.407 380.84,420.374C380.759,419.999 380.681,419.622 380.603,419.246C380.393,418.266 380.256,417.279 380.08,416.296L380.075,416.27C379.887,415.215 380.589,414.207 381.645,414.018C381.759,413.997 381.874,413.987 381.986,413.987C382.889,413.987 383.693,414.621 383.885,415.529C384.043,416.279 384.232,417.015 384.361,417.778C384.438,418.237 384.517,418.694 384.581,419.157C384.73,419.837 384.887,420.515 385.076,421.181C385.295,422.085 385.598,422.952 385.868,423.833C386.188,424.689 386.488,425.555 386.868,426.37C387.039,426.791 387.236,427.191 387.444,427.584C387.643,427.984 387.847,428.379 388.08,428.745C388.301,429.124 388.526,429.497 388.777,429.837L389.141,430.363L389.537,430.839C390.057,431.485 390.646,432.005 391.233,432.405C391.825,432.822 392.416,432.986 392.932,433.016C392.961,433.017 392.99,433.017 393.019,433.017C393.503,433.017 393.964,432.863 394.448,432.538C394.958,432.181 395.427,431.595 395.861,430.96C396.259,430.27 396.631,429.529 396.909,428.711C397.204,427.904 397.429,427.046 397.614,426.173C397.806,425.299 397.928,424.397 398.042,423.492C398.114,422.578 398.229,421.668 398.246,420.738C398.3,419.814 398.295,418.882 398.286,417.948C398.286,417.016 398.211,416.076 398.179,415.141L398.178,415.122C398.143,414.111 398.934,413.264 399.944,413.228C399.966,413.228 399.987,413.227 400.008,413.227C400.87,413.227 401.601,413.827 401.791,414.642C401.956,415.349 402.073,416.08 402.275,416.77L402.561,417.812L402.907,418.821C403.013,419.164 403.158,419.479 403.295,419.799C403.43,420.121 403.563,420.443 403.732,420.735C404.038,421.347 404.393,421.913 404.783,422.415C404.984,422.659 405.174,422.922 405.4,423.113L405.723,423.43L406.068,423.684C406.289,423.885 406.544,423.956 406.773,424.112C407.021,424.183 407.257,424.326 407.512,424.346C407.725,424.401 407.943,424.426 408.165,424.426C408.46,424.426 408.761,424.382 409.065,424.308C409.604,424.2 410.136,423.901 410.655,423.579C411.16,423.212 411.666,422.807 412.101,422.294C412.555,421.809 412.953,421.246 413.321,420.662C414.053,419.485 414.614,418.166 415.022,416.793C415.236,416.109 415.396,415.403 415.527,414.692C415.675,413.983 415.753,413.26 415.837,412.535C415.878,411.807 415.94,411.077 415.92,410.343C415.939,409.608 415.864,408.875 415.827,408.138L415.83,408.137C415.827,408.115 415.824,408.092 415.821,408.069C415.733,407.424 416.186,406.828 416.831,406.74C416.885,406.733 416.939,406.729 416.992,406.729C417.573,406.729 418.08,407.159 418.16,407.75L418.164,407.781L418.173,407.862C418.257,408.662 418.377,409.46 418.399,410.269C418.402,410.306 418.405,410.343 418.408,410.381C418.481,410.845 418.581,411.299 418.684,411.754C418.856,412.357 419.043,412.958 419.303,413.513C419.556,414.071 419.871,414.581 420.228,415.048C420.607,415.484 421.022,415.895 421.518,416.154C421.996,416.453 422.545,416.596 423.107,416.65C423.22,416.665 423.333,416.671 423.447,416.671C423.905,416.671 424.37,416.564 424.829,416.442C425.391,416.236 425.956,415.986 426.456,415.606C426.974,415.256 427.424,414.805 427.861,414.338C428.274,413.847 428.657,413.323 428.983,412.758C429.307,412.19 429.58,411.592 429.814,410.974L430.122,410.028L430.354,409.057C430.469,408.4 430.573,407.737 430.608,407.064C430.675,406.394 430.651,405.716 430.631,405.039C430.591,404.361 430.531,403.683 430.412,403.011C430.334,402.33 430.135,401.674 430,401C430.197,401.654 430.461,402.296 430.604,402.971C430.788,403.636 430.915,404.314 431.021,405C431.108,405.685 431.199,406.38 431.197,407.078C431.228,407.777 431.167,408.477 431.103,409.177L430.938,410.222L430.691,411.255C430.494,411.937 430.25,412.609 429.943,413.261C429.635,413.91 429.257,414.529 428.831,415.122C428.375,415.693 427.882,416.246 427.294,416.708C426.727,417.195 426.054,417.564 425.348,417.871C424.678,418.105 423.967,418.307 423.226,418.307C423.163,418.307 423.101,418.306 423.038,418.303C422.24,418.285 421.416,418.117 420.696,417.743C419.952,417.405 419.333,416.879 418.784,416.317C418.56,416.066 418.35,415.806 418.156,415.537C418.113,415.806 418.057,416.074 418.003,416.342C417.928,416.745 417.844,417.147 417.729,417.544C417.317,419.139 416.725,420.707 415.883,422.183C415.458,422.918 414.987,423.638 414.416,424.303C413.872,424.984 413.201,425.593 412.477,426.15C411.718,426.673 410.896,427.168 409.929,427.427C409.316,427.606 408.656,427.714 407.991,427.714C407.63,427.714 407.269,427.682 406.913,427.613C406.395,427.56 405.924,427.357 405.439,427.2C405,426.975 404.519,426.776 404.143,426.479L403.552,426.057L403.032,425.582C402.67,425.271 402.391,424.919 402.096,424.572C402,424.456 401.908,424.338 401.817,424.219C401.707,425.129 401.582,426.04 401.391,426.954C401.182,427.973 400.925,428.994 400.563,430.009C400.223,431.024 399.745,432.031 399.175,433.016C398.534,433.983 397.801,434.949 396.728,435.727C395.714,436.46 394.371,436.961 393.02,436.961Z" style="fill:rgb(235,236,235);fill-rule:nonzero;"/>
    </g>
    <g transform="matrix(4.16667,0,0,4.16667,-1346.79,-1149.93)">
        <path d="M336.36,325.262C339.966,296.859 349.34,280.111 381.066,276.472C412.793,272.83 438.752,290.306 466.152,303.416C451.01,307.783 438.752,306.328 432.982,323.805L336.36,325.262Z" style="fill:rgb(189,32,47);fill-rule:nonzero;"/>
    </g>
    <g transform="matrix(4.16667,0,0,4.16667,-1346.79,-1149.93)">
        <path d="M394.131,291.782C388.561,290.176 383.125,288.159 377.972,285.576C378.769,285.178 379.218,284.903 379.218,284.903C379.218,284.903 378.997,284.8 378.591,284.637C381.975,281.829 385.277,278.946 388.48,276.004C388.853,275.998 389.225,275.995 389.597,275.995C395.268,275.995 400.762,276.64 406.131,277.758C402.365,282.652 398.369,287.334 394.131,291.782Z" style="fill:rgb(174,30,44);fill-rule:nonzero;"/>
    </g>
    <g transform="matrix(4.16667,0,0,4.16667,-1346.79,-1149.93)">
        <path d="M378.412,306.165C371.965,304.351 365.453,302.146 359.626,298.943C364.894,295.341 370.042,291.533 375.016,287.549C375.351,287.316 375.675,287.085 375.975,286.871C381.243,289.603 386.801,291.734 392.517,293.439C388.504,297.532 384.284,301.424 379.82,305.071C379.359,305.446 378.879,305.797 378.412,306.165Z" style="fill:rgb(174,30,44);fill-rule:nonzero;"/>
    </g>
    <g transform="matrix(4.16667,0,0,4.16667,-1346.79,-1149.93)">
        <path d="M360.058,318.796C358.748,318.74 357.445,318.67 356.137,318.584C351.436,315.944 346.959,312.914 343.102,309.277C348.079,306.458 352.983,303.428 357.784,300.208C363.564,303.509 370.006,305.814 376.422,307.716C372.216,310.887 367.812,313.806 363.41,316.676C362.314,317.391 361.196,318.103 360.058,318.796Z" style="fill:rgb(174,30,44);fill-rule:nonzero;"/>
    </g>
    <g transform="matrix(4.16667,0,0,4.16667,-1346.79,-1149.93)">
        <path d="M351.46,318.209C346.89,317.775 342.336,317.137 337.8,316.247C338.113,314.668 338.454,313.132 338.827,311.641C339.625,311.212 340.417,310.761 341.212,310.322C344.302,313.306 347.779,315.899 351.46,318.209Z" style="fill:rgb(174,30,44);fill-rule:nonzero;"/>
    </g>
    <g transform="matrix(4.16667,0,0,4.16667,-1346.79,-1149.93)">
        <path d="M412.892,295.844C412.189,295.724 411.486,295.605 410.787,295.49C405.982,294.683 401.166,293.683 396.424,292.418C400.637,287.91 404.615,283.17 408.355,278.251C413.959,279.561 419.424,281.387 424.811,283.521C420.891,287.681 416.896,291.767 412.892,295.844Z" style="fill:rgb(174,30,44);fill-rule:nonzero;"/>
    </g>
    <g transform="matrix(4.16667,0,0,4.16667,-1346.79,-1149.93)">
        <path d="M398.219,311.331C394.848,310.468 391.483,309.59 388.123,308.729C385.768,308.128 383.342,307.507 380.894,306.853C385.824,302.911 390.473,298.647 394.842,294.105C399.379,295.36 403.995,296.381 408.629,297.233C409.453,297.384 410.279,297.524 411.105,297.663C409.507,299.289 407.908,300.913 406.312,302.541C403.564,305.342 400.9,308.331 398.219,311.331Z" style="fill:rgb(174,30,44);fill-rule:nonzero;"/>
    </g>
    <g transform="matrix(4.16667,0,0,4.16667,-1346.79,-1149.93)">
        <path d="M368.658,318.976C367.244,318.976 365.832,318.962 364.42,318.934C369.359,315.775 374.021,312.149 378.306,308.904C378.506,308.75 378.697,308.587 378.897,308.436C380.459,308.877 382.014,309.302 383.55,309.712C387.865,310.864 392.203,312.04 396.56,313.178C395.108,314.792 393.644,316.398 392.152,317.969C384.312,318.561 376.473,318.976 368.658,318.976Z" style="fill:rgb(174,30,44);fill-rule:nonzero;"/>
    </g>
    <g transform="matrix(4.16667,0,0,4.16667,-1346.79,-1149.93)">
        <path d="M437.428,299.638C430.016,298.683 422.633,297.478 415.381,296.262C419.243,292.317 423.095,288.367 426.877,284.344C432.164,286.523 437.377,288.994 442.567,291.572C440.886,294.277 439.176,296.969 437.428,299.638Z" style="fill:rgb(174,30,44);fill-rule:nonzero;"/>
    </g>
    <g transform="matrix(4.16667,0,0,4.16667,-1346.79,-1149.93)">
        <path d="M417.345,315.742C411.654,314.638 405.999,313.294 400.364,311.873C401.905,310.169 403.451,308.482 405.029,306.852C407.873,303.91 410.74,300.991 413.605,298.07C420.998,299.232 428.447,300.036 435.858,301.055C436.051,301.081 436.243,301.106 436.436,301.132C433.291,305.87 430.003,310.511 426.491,314.968C423.448,315.205 420.398,315.468 417.345,315.742Z" style="fill:rgb(174,30,44);fill-rule:nonzero;"/>
    </g>
    <g transform="matrix(4.16667,0,0,4.16667,-1346.79,-1149.93)">
        <path d="M395.055,317.742C396.276,316.412 397.483,315.069 398.688,313.729C402.405,314.682 406.137,315.595 409.883,316.427C404.948,316.885 399.999,317.343 395.055,317.742Z" style="fill:rgb(174,30,44);fill-rule:nonzero;"/>
    </g>
    <g transform="matrix(4.16667,0,0,4.16667,-1346.79,-1149.93)">
        <path d="M454.872,297.806C454.638,297.687 454.407,297.569 454.173,297.449C454.406,297.568 454.639,297.686 454.872,297.805L454.872,297.806Z" style="fill:rgb(171,142,153);fill-rule:nonzero;"/>
    </g>
    <g transform="matrix(4.16667,0,0,4.16667,-1346.79,-1149.93)">
        <path d="M454.227,301.231C449.407,300.966 444.564,300.507 439.728,299.922C441.325,297.47 442.895,294.995 444.439,292.511C447.686,294.14 450.927,295.799 454.173,297.449C454.407,297.569 454.638,297.687 454.872,297.806C454.54,298.916 454.325,300.069 454.227,301.231Z" style="fill:rgb(174,30,44);fill-rule:nonzero;"/>
    </g>
    <g transform="matrix(4.16667,0,0,4.16667,-1346.79,-1149.93)">
        <path d="M438.153,314.213C441.275,310.651 445.13,308.788 449.55,307.46C445.132,308.789 441.278,310.653 438.157,314.213L438.153,314.213Z" style="fill:rgb(171,142,153);fill-rule:nonzero;"/>
    </g>
    <g transform="matrix(4.16667,0,0,4.16667,-1346.79,-1149.93)">
        <path d="M429.302,314.757C432.615,310.453 435.736,305.99 438.73,301.445C443.869,302.14 449.013,302.778 454.173,303.169C454.201,304.183 454.318,305.192 454.522,306.181C452.797,306.574 451.137,306.983 449.55,307.46C445.13,308.788 441.275,310.651 438.153,314.213C435.208,314.358 432.259,314.543 429.302,314.757Z" style="fill:rgb(174,30,44);fill-rule:nonzero;"/>
    </g>
    <g transform="matrix(4.16667,0,0,4.16667,-1346.79,-1149.93)">
        <path d="M380.707,276.514C380.712,276.513 380.717,276.512 380.722,276.512C380.717,276.512 380.712,276.513 380.707,276.514ZM380.758,276.508C380.766,276.507 380.773,276.506 380.781,276.505C380.773,276.506 380.766,276.507 380.758,276.508ZM380.81,276.501C380.845,276.497 380.879,276.493 380.913,276.489C380.879,276.493 380.845,276.497 380.81,276.501ZM380.935,276.487C380.944,276.486 380.953,276.485 380.963,276.484C380.953,276.485 380.944,276.486 380.935,276.487ZM380.99,276.48C380.998,276.48 381.006,276.479 381.015,276.478C381.007,276.479 380.998,276.48 380.99,276.48ZM381.066,276.472C381.201,276.456 381.335,276.441 381.469,276.427C381.336,276.441 381.2,276.456 381.066,276.472Z" style="fill:rgb(171,142,153);fill-rule:nonzero;"/>
    </g>
    <g transform="matrix(4.16667,0,0,4.16667,-1346.79,-1149.93)">
        <path d="M375.997,284.042C375.895,284.032 375.792,284.023 375.686,284.014C375.485,284.005 375.282,284.001 375.074,284.001C375.052,284.001 375.03,284.001 375.008,284.001C372.436,282.568 369.949,280.974 367.563,279.205C371.45,277.996 375.805,277.095 380.707,276.514C380.712,276.513 380.717,276.512 380.722,276.512C380.734,276.51 380.746,276.509 380.758,276.508C380.766,276.507 380.773,276.506 380.781,276.505C380.791,276.504 380.801,276.503 380.81,276.501C380.845,276.497 380.879,276.493 380.913,276.489C380.92,276.489 380.927,276.488 380.935,276.487C380.944,276.486 380.953,276.485 380.963,276.484C380.972,276.483 380.981,276.482 380.99,276.48C380.998,276.48 381.007,276.479 381.015,276.478C381.032,276.476 381.049,276.474 381.066,276.472C381.2,276.456 381.336,276.441 381.469,276.427C382.733,276.29 383.984,276.197 385.23,276.125C382.236,278.822 379.147,281.462 375.997,284.042Z" style="fill:rgb(174,30,44);fill-rule:nonzero;"/>
    </g>
    <g transform="matrix(4.16667,0,0,4.16667,-1346.79,-1149.93)">
        <path d="M354.152,295.463C352.267,294.06 350.502,292.502 348.888,290.77C352.965,286.118 358.249,282.517 365.167,280.008C367.208,281.584 369.321,283.026 371.495,284.348C371.097,284.422 370.693,284.509 370.293,284.62C369.309,284.888 368.261,285.19 367.254,285.618C366.216,286.009 365.199,286.5 364.189,287.043C363.164,287.563 362.208,288.212 361.226,288.829C360.301,289.523 359.337,290.164 358.492,290.934C357.615,291.659 356.804,292.438 356.058,293.235C355.352,293.949 354.731,294.725 354.152,295.463Z" style="fill:rgb(174,30,44);fill-rule:nonzero;"/>
    </g>
    <g transform="matrix(4.16667,0,0,4.16667,-1346.79,-1149.93)">
        <path d="M341.546,307.738C341.132,307.312 340.718,306.885 340.323,306.442C342.103,301.055 344.452,296.356 347.578,292.355C349.253,294.107 351.069,295.683 353,297.104C352.798,297.418 352.608,297.725 352.425,298.02C351.995,298.822 351.617,299.546 351.335,300.23C351.069,300.936 350.856,301.537 350.722,302.056C350.704,302.143 350.687,302.226 350.671,302.307C347.662,304.195 344.618,306.007 341.546,307.738Z" style="fill:rgb(174,30,44);fill-rule:nonzero;"/>
    </g>
    <g transform="matrix(4.16667,0,0,4.16667,-1346.79,-1149.93)">
        <path d="M350.462,303.734C350.462,303.734 350.491,303.229 350.671,302.307C352.388,301.229 354.093,300.128 355.786,299.002C354.834,298.402 353.904,297.77 353,297.104C353.309,296.621 353.643,296.124 354.014,295.64C354.06,295.581 354.106,295.522 354.152,295.463C355.264,296.29 356.418,297.063 357.607,297.787C363.196,293.998 368.645,289.97 373.902,285.751C373.092,285.299 372.29,284.832 371.495,284.348C372.073,284.242 372.637,284.164 373.157,284.084C373.826,284.036 374.434,284.003 375.008,284.001C375.215,284.116 375.421,284.23 375.629,284.343C375.751,284.243 375.874,284.142 375.997,284.042C376.666,284.105 377.231,284.179 377.67,284.292C378.038,284.422 378.347,284.54 378.591,284.637C378.278,284.897 377.964,285.156 377.65,285.414C377.757,285.468 377.864,285.522 377.972,285.576C377.898,285.613 377.821,285.651 377.741,285.689C377.296,285.957 376.824,286.306 376.314,286.63C376.205,286.707 376.092,286.787 375.975,286.871C375.952,286.858 375.929,286.846 375.905,286.834C375.609,287.073 375.313,287.311 375.016,287.549C374.857,287.66 374.695,287.771 374.532,287.881C373.262,288.813 371.778,289.901 370.189,291.066C369.801,291.37 369.385,291.626 368.978,291.93C368.574,292.235 368.163,292.538 367.736,292.82C366.898,293.409 366.043,294.019 365.179,294.603C364.322,295.205 363.44,295.772 362.586,296.352C362.162,296.646 361.73,296.925 361.293,297.188C360.865,297.463 360.46,297.754 360.03,298.007C359.18,298.526 358.382,299.047 357.586,299.516C356.791,299.982 356.065,300.446 355.339,300.843C354.66,301.266 353.987,301.636 353.402,301.976C352.838,302.325 352.303,302.625 351.862,302.879C351.031,303.411 350.462,303.734 350.462,303.734Z" style="fill:rgb(207,95,103);fill-rule:nonzero;"/>
    </g>
    <g transform="matrix(4.16667,0,0,4.16667,-1346.79,-1149.93)">
        <path d="M377.972,285.576C377.864,285.522 377.757,285.468 377.65,285.414C377.964,285.156 378.278,284.897 378.591,284.637C378.997,284.8 379.218,284.903 379.218,284.903C379.218,284.903 378.769,285.178 377.972,285.576Z" style="fill:rgb(195,93,101);fill-rule:nonzero;"/>
    </g>
    <g transform="matrix(4.16667,0,0,4.16667,-1346.79,-1149.93)">
        <path d="M375.016,287.549C375.313,287.311 375.609,287.073 375.905,286.834C375.929,286.846 375.952,286.858 375.975,286.871C375.675,287.085 375.351,287.316 375.016,287.549Z" style="fill:rgb(195,93,101);fill-rule:nonzero;"/>
    </g>
    <g transform="matrix(4.16667,0,0,4.16667,-1346.79,-1149.93)">
        <path d="M375.629,284.343C375.421,284.23 375.215,284.116 375.008,284.001C375.03,284.001 375.052,284.001 375.074,284.001C375.282,284.001 375.485,284.005 375.686,284.014C375.792,284.023 375.895,284.032 375.997,284.042C375.874,284.142 375.751,284.243 375.629,284.343Z" style="fill:rgb(195,93,101);fill-rule:nonzero;"/>
    </g>
    <g transform="matrix(4.16667,0,0,4.16667,-1346.79,-1149.93)">
        <path d="M357.607,297.787C356.418,297.063 355.264,296.29 354.152,295.463C354.731,294.725 355.352,293.949 356.058,293.235C356.804,292.438 357.615,291.659 358.492,290.934C359.337,290.164 360.301,289.523 361.226,288.829C362.208,288.212 363.164,287.563 364.189,287.043C365.199,286.5 366.216,286.009 367.254,285.618C368.261,285.19 369.309,284.888 370.293,284.62C370.693,284.509 371.097,284.422 371.495,284.348C372.29,284.832 373.092,285.299 373.902,285.751C368.645,289.97 363.196,293.998 357.607,297.787Z" style="fill:rgb(195,93,101);fill-rule:nonzero;"/>
    </g>
    <g transform="matrix(4.16667,0,0,4.16667,-1346.79,-1149.93)">
        <path d="M350.671,302.307C350.687,302.226 350.704,302.143 350.722,302.056C350.856,301.537 351.069,300.936 351.335,300.23C351.617,299.546 351.995,298.822 352.425,298.02C352.608,297.725 352.798,297.418 353,297.104C353.904,297.77 354.834,298.402 355.786,299.002C354.093,300.128 352.388,301.229 350.671,302.307Z" style="fill:rgb(195,93,101);fill-rule:nonzero;"/>
    </g>
    <g transform="matrix(4.16667,0,0,4.16667,-1346.79,-1149.93)">
        <path d="M468.676,317.686C488.022,317.686 488.022,287.687 468.676,287.687C449.33,287.687 449.33,317.686 468.676,317.686Z" style="fill:rgb(229,229,228);fill-rule:nonzero;"/>
    </g>
    <g transform="matrix(4.16667,0,0,4.16667,-1346.79,-1149.93)">
        <path d="M473.631,313.184C473.369,313.184 473.115,313.097 472.849,313.066C472.542,313.041 472.271,312.885 471.981,312.767C471.679,312.667 471.467,312.409 471.201,312.225C470.98,311.999 470.781,311.727 470.61,311.45C470.525,311.218 470.388,310.986 470.316,310.743C470.095,310.792 469.872,310.836 469.636,310.836C469.623,310.836 469.609,310.836 469.595,310.836C469.415,310.842 469.235,310.852 469.054,310.852C468.851,310.852 468.648,310.839 468.443,310.794C468.055,310.738 467.669,310.67 467.308,310.504L466.759,310.283C466.583,310.198 466.429,310.082 466.264,309.979C465.934,309.77 465.612,309.55 465.365,309.272C465.113,309.004 464.804,308.753 464.624,308.45L464.017,307.564L464.147,307.762C463.66,307.143 463.412,306.45 463.294,305.794C462.436,305.568 461.594,305.182 460.853,304.535L460.791,304.481L460.782,304.47L460.091,303.605C459.871,303.31 459.711,302.961 459.525,302.642C459.336,302.323 459.246,301.944 459.109,301.6C458.972,301.252 458.949,300.865 458.87,300.503C458.804,300.137 458.837,299.758 458.821,299.39C458.834,299.021 458.912,298.656 458.96,298.295C459.049,297.941 459.169,297.597 459.282,297.256C459.44,296.934 459.584,296.605 459.76,296.297C459.96,296.005 460.138,295.699 460.358,295.428C460.594,295.169 460.803,294.889 461.059,294.655C461.321,294.43 461.561,294.181 461.847,293.99C462.137,293.806 462.402,293.592 462.706,293.437C463.012,293.29 463.3,293.114 463.615,292.996C463.935,292.886 464.239,292.754 464.566,292.676C464.897,292.609 465.222,292.528 465.543,292.48L466.517,292.404L465.577,292.668C465.271,292.777 464.983,292.916 464.694,293.034C464.41,293.169 464.142,293.346 463.866,293.49C463.594,293.645 463.354,293.854 463.101,294.029C462.851,294.211 462.642,294.447 462.413,294.649C462.19,294.859 462.014,295.115 461.81,295.337C461.614,295.568 461.47,295.838 461.298,296.081C461.142,296.336 461.031,296.614 460.895,296.875C460.787,297.148 460.71,297.432 460.613,297.703L460.467,298.548C460.467,298.831 460.431,299.111 460.451,299.389C460.501,299.663 460.494,299.942 460.577,300.206C460.673,300.466 460.701,300.74 460.838,300.982C460.975,301.224 461.048,301.486 461.222,301.706C461.393,301.927 461.521,302.166 461.714,302.37L462.249,302.941C462.55,303.163 462.912,303.329 463.309,303.446C463.336,303.281 463.368,303.118 463.402,302.957C463.722,301.532 464.286,300.243 465.047,299.04C465.432,298.44 465.875,297.864 466.42,297.336C466.965,296.812 467.601,296.304 468.484,295.971C468.883,295.809 469.376,295.721 469.88,295.721C469.914,295.721 469.948,295.722 469.982,295.723C470.531,295.759 471.094,295.921 471.542,296.199C471.773,296.319 472.01,296.531 472.225,296.714C472.386,296.876 472.399,296.896 472.607,297.121C472.851,297.43 473.094,297.73 473.299,298.1C473.716,298.809 474.025,299.73 473.955,300.705C473.895,301.685 473.439,302.559 472.902,303.186C471.803,304.451 470.465,305.097 469.133,305.54C468.258,305.823 467.361,306.005 466.45,306.068L466.478,306.107L466.524,306.183L466.895,306.774C467,306.997 467.177,307.11 467.312,307.285C467.444,307.469 467.614,307.579 467.778,307.695L468.023,307.875L468.294,307.991C468.465,308.097 468.662,308.13 468.858,308.168C469.048,308.237 469.261,308.212 469.469,308.222C469.502,308.227 469.535,308.229 469.569,308.229C469.746,308.229 469.93,308.169 470.112,308.151C470.188,308.148 470.263,308.131 470.337,308.108C470.374,307.962 470.418,307.819 470.467,307.678C470.55,307.366 470.674,307.075 470.812,306.789C470.935,306.493 471.086,306.213 471.266,305.949C471.431,305.676 471.609,305.411 471.822,305.172C472.026,304.925 472.223,304.669 472.468,304.458C472.709,304.245 472.921,303.993 473.196,303.816C473.464,303.632 473.717,303.421 474.004,303.261L474.884,302.802L476.305,302.06L476.223,303.726C476.205,304.083 476.205,304.452 476.153,304.808C476.068,305.149 476.005,305.508 475.885,305.838C475.747,306.157 475.635,306.498 475.464,306.798C475.283,307.091 475.128,307.408 474.917,307.68C474.7,307.945 474.508,308.237 474.263,308.479C474.014,308.716 473.787,308.98 473.512,309.19C473.231,309.396 472.974,309.632 472.667,309.806C472.356,309.974 472.07,310.183 471.73,310.308C471.548,310.371 471.373,310.45 471.192,310.519C471.21,310.726 471.298,310.912 471.329,311.123C471.426,311.351 471.54,311.582 471.684,311.793C471.873,311.961 472.002,312.216 472.246,312.336C472.477,312.467 472.682,312.67 472.955,312.741C473.219,312.824 473.472,312.981 473.758,313.009L474.611,313.162L473.734,313.179C473.7,313.182 473.665,313.184 473.631,313.184ZM473.468,305.823C473.311,305.949 473.172,306.097 473.025,306.239C472.83,306.413 472.664,306.612 472.508,306.82C472.422,306.919 472.34,307.02 472.263,307.124C472.378,307.028 472.487,306.924 472.605,306.832C472.798,306.676 472.941,306.475 473.117,306.299C473.254,306.153 473.355,305.985 473.468,305.823ZM469.843,298.666C469.767,298.666 469.673,298.689 469.521,298.743C469.234,298.85 468.855,299.118 468.516,299.467C468.175,299.815 467.842,300.225 467.546,300.67C466.962,301.555 466.504,302.572 466.263,303.573C466.949,303.473 467.63,303.298 468.272,303.061C469.281,302.692 470.224,302.097 470.727,301.432C470.981,301.102 471.085,300.792 471.087,300.518C471.099,300.243 471.012,299.927 470.795,299.568C470.698,299.39 470.541,299.211 470.399,299.028L470.136,298.76L470.063,298.73C469.981,298.691 469.922,298.666 469.843,298.666Z" style="fill:rgb(250,250,250);fill-rule:nonzero;"/>
    </g>
    <g transform="matrix(4.16667,0,0,4.16667,-1346.79,-1149.93)">
        <path d="M331.179,335.269C367.031,342.695 403.077,335.821 439.112,334.168C451.954,333.579 452.012,313.576 439.112,314.168C405.154,315.726 370.263,322.978 336.495,315.984C331.163,314.88 325.708,317.464 324.194,322.969C322.82,327.964 325.839,334.164 331.179,335.269Z" style="fill:rgb(229,229,228);fill-rule:nonzero;"/>
    </g>
    <g transform="matrix(4.16667,0,0,4.16667,-1346.79,-1149.93)">
        <path d="M402.729,334.743C401.014,334.713 399.367,334.454 397.699,333.81C396.567,333.368 395.447,332.676 394.538,331.742C393.483,332.097 392.412,332.361 391.329,332.561C390.063,332.787 388.778,332.919 387.467,332.919C387.17,332.919 386.872,332.912 386.572,332.898C385.761,332.857 384.937,332.761 384.1,332.557C383.492,332.405 382.87,332.201 382.255,331.879C381.21,332.479 380.114,332.943 378.984,333.303C378.215,333.544 377.428,333.734 376.62,333.862C376.212,333.928 375.82,333.976 375.367,334.004C375.133,334.023 374.96,334.023 374.773,334.027L374.635,334.03L374.447,334.027L374.138,334.016C372.487,333.963 370.808,333.578 369.288,332.803C368.778,332.544 368.286,332.24 367.824,331.892C367.1,332.299 366.35,332.628 365.587,332.9C363.763,333.543 361.87,333.885 359.957,333.938C359.817,333.94 359.676,333.942 359.536,333.942C357.762,333.942 355.956,333.718 354.215,332.947L354.153,332.921L354.123,332.901L353.416,332.441C353.178,332.292 352.966,332.103 352.74,331.935C352.513,331.769 352.308,331.571 352.101,331.378C351.888,331.192 351.69,330.989 351.503,330.769L350.794,331.134C350.269,331.362 349.732,331.565 349.177,331.695C348.402,331.884 347.609,331.976 346.82,331.976C346.482,331.976 346.145,331.959 345.81,331.926C344.691,331.815 343.592,331.528 342.568,331.044C342.056,330.805 341.569,330.5 341.111,330.151C340.833,329.913 340.557,329.666 340.312,329.384C340.179,329.437 340.045,329.483 339.911,329.526C339.525,329.628 339.13,329.692 338.735,329.692C338.705,329.692 338.674,329.691 338.644,329.69C338.638,329.69 338.632,329.69 338.626,329.69C338.206,329.69 337.79,329.621 337.39,329.51C336.981,329.399 336.594,329.224 336.232,329.008C335.881,328.778 335.543,328.521 335.269,328.202C334.979,327.899 334.757,327.537 334.58,327.162C334.4,326.786 334.288,326.384 334.222,325.977C334.162,325.571 334.145,325.159 334.184,324.754C334.209,324.349 334.289,323.946 334.395,323.559C334.495,323.166 334.633,322.787 334.794,322.417C334.937,322.041 335.146,321.697 335.32,321.336C335.166,321.705 334.974,322.061 334.852,322.441C334.711,322.816 334.596,323.196 334.517,323.588C334.433,323.975 334.376,324.37 334.372,324.764C334.354,325.157 334.394,325.551 334.469,325.933C334.552,326.313 334.678,326.684 334.861,327.022C335.044,327.359 335.264,327.681 335.543,327.942C335.806,328.221 336.126,328.436 336.454,328.627C336.792,328.803 337.146,328.946 337.516,329.032C337.831,329.107 338.157,329.152 338.481,329.152C338.533,329.152 338.586,329.151 338.639,329.148C339.015,329.145 339.385,329.07 339.739,328.964C339.807,328.939 339.874,328.913 339.941,328.886C339.935,328.876 339.93,328.867 339.924,328.857C339.592,328.361 339.362,327.764 339.321,327.142C339.243,326.517 339.421,325.902 339.647,325.355C339.912,324.822 340.252,324.348 340.647,323.946C341.036,323.533 341.478,323.204 341.916,322.872L342.476,322.449L342.592,323.113C342.664,323.527 342.779,323.929 342.804,324.354C342.862,324.77 342.854,325.198 342.843,325.623L342.763,326.263C342.719,326.474 342.657,326.683 342.604,326.893C342.535,327.098 342.442,327.298 342.361,327.499C342.251,327.688 342.145,327.882 342.021,328.062C341.815,328.327 341.589,328.582 341.329,328.793C341.487,328.941 341.658,329.08 341.827,329.217C342.218,329.487 342.634,329.729 343.081,329.917C343.974,330.297 344.944,330.512 345.918,330.569C346.092,330.579 346.266,330.585 346.44,330.585C347.241,330.585 348.038,330.477 348.798,330.261C349.262,330.129 349.707,329.954 350.141,329.753L350.565,329.522C350.532,329.465 350.501,329.408 350.471,329.349C350.315,329.094 350.184,328.817 350.081,328.513C349.953,328.231 349.895,327.894 349.837,327.566C349.786,327.238 349.804,326.861 349.854,326.51C349.947,326.145 350.043,325.78 350.272,325.475C350.456,325.132 350.734,324.915 351,324.68C351.27,324.453 351.567,324.341 351.853,324.177C352.143,324.056 352.433,323.982 352.723,323.889C353.013,323.8 353.292,323.785 353.577,323.732C354.15,323.621 354.691,323.663 355.249,323.624L356.539,323.536L356.071,324.727C355.865,325.251 355.727,325.795 355.461,326.298C355.336,326.553 355.223,326.811 355.088,327.061L354.642,327.789C354.503,328.037 354.303,328.249 354.136,328.48C353.968,328.713 353.78,328.929 353.573,329.13C353.418,329.302 353.251,329.465 353.078,329.62C353.187,329.731 353.302,329.838 353.424,329.938C353.598,330.092 353.766,330.251 353.96,330.383C354.152,330.517 354.327,330.672 354.53,330.79L355.085,331.133C356.29,331.627 357.688,331.818 359.09,331.818C359.352,331.818 359.614,331.811 359.875,331.799C361.56,331.716 363.245,331.364 364.802,330.772C365.248,330.601 365.683,330.408 366.101,330.192C365.888,329.914 365.69,329.621 365.51,329.313C365.068,328.532 364.718,327.657 364.653,326.65C364.617,326.15 364.665,325.617 364.818,325.085C364.992,324.559 365.261,324.026 365.675,323.614C366.492,322.756 367.586,322.458 368.499,322.382C368.677,322.368 368.853,322.362 369.025,322.362C369.76,322.362 370.445,322.474 371.103,322.623L371.907,322.803L372.043,323.549L372.188,324.34C372.217,324.608 372.23,324.883 372.249,325.153C372.246,325.428 372.23,325.705 372.215,325.979C372.17,326.254 372.135,326.529 372.073,326.8C371.936,327.338 371.748,327.864 371.488,328.346C371.234,328.828 370.932,329.281 370.584,329.678C370.434,329.86 370.276,330.032 370.111,330.195C370.238,330.267 370.368,330.335 370.5,330.399C371.632,330.958 372.913,331.246 374.225,331.271L374.47,331.278L374.531,331.28L374.526,331.281L374.561,331.28L374.7,331.275C374.885,331.269 375.082,331.266 375.217,331.248C375.503,331.226 375.849,331.183 376.172,331.126C376.827,331.014 377.483,330.847 378.126,330.636C378.812,330.41 379.485,330.133 380.125,329.808C379.956,329.475 379.832,329.117 379.771,328.746C379.555,327.618 379.807,326.617 380.118,325.779C380.781,324.096 381.787,322.843 382.802,321.641L383.82,320.433L384.927,321.573C385.539,322.204 386.118,322.96 386.484,323.908C386.863,324.848 386.913,325.99 386.645,326.976C386.384,327.975 385.854,328.787 385.279,329.466C385.198,329.561 385.115,329.654 385.03,329.745C385.565,329.857 386.143,329.923 386.716,329.946C386.937,329.956 387.161,329.961 387.385,329.961C388.511,329.961 389.664,329.842 390.796,329.635C391.495,329.503 392.191,329.339 392.87,329.138C392.36,327.786 392.262,326.329 392.393,325.001C392.564,323.244 393.096,321.621 393.759,320.103L394.396,318.646L395.789,319.4C396.485,319.777 397.182,320.159 397.856,320.641C398.531,321.115 399.199,321.643 399.805,322.349C400.399,323.043 400.964,323.987 401.083,325.159C401.197,326.34 400.722,327.496 400.118,328.253C399.514,329.042 398.811,329.607 398.099,330.075C397.899,330.206 397.697,330.328 397.494,330.444C397.881,330.708 398.31,330.934 398.772,331.119C399.978,331.603 401.429,331.848 402.787,331.866C404.018,331.847 405.354,331.538 406.414,330.876C406.745,330.673 407.061,330.439 407.357,330.179C406.81,329.73 406.291,329.225 405.822,328.637C405.266,327.924 404.738,327.064 404.582,325.943C404.483,325.396 404.561,324.783 404.724,324.221C404.917,323.668 405.215,323.165 405.57,322.774C406.297,321.983 407.071,321.51 407.94,321.123C408.17,321.009 408.326,320.962 408.512,320.887L408.781,320.783L408.916,320.73L408.95,320.718C409.063,320.678 409.018,320.696 409.06,320.683L409.187,320.65C409.4,320.587 409.648,320.55 409.911,320.55C410.048,320.55 410.19,320.56 410.332,320.581C410.765,320.658 411.169,320.855 411.482,321.116C412.104,321.651 412.331,322.242 412.487,322.749C412.646,323.271 412.698,323.755 412.719,324.227C412.762,326.095 412.273,327.791 411.473,329.359C411.41,329.481 411.345,329.602 411.277,329.722C411.817,330.003 412.377,330.246 412.947,330.442C413.879,330.755 414.811,330.966 415.713,330.966C416.102,330.966 416.485,330.927 416.86,330.84C418.007,330.625 419.097,330.177 420.101,329.565C420.003,329.505 419.908,329.439 419.815,329.366C419.646,329.243 419.472,329.13 419.31,328.996L418.86,328.529C418.536,328.242 418.358,327.815 418.123,327.445C417.956,327.045 417.818,326.611 417.737,326.19C417.718,325.769 417.631,325.322 417.691,324.917C417.754,324.515 417.77,324.084 417.885,323.704L418.237,322.565L418.721,321.514C419.036,320.805 419.479,320.202 419.855,319.542L420.164,319.002L420.84,319.151C421.653,319.331 422.473,319.569 423.269,319.967C424.059,320.361 424.843,320.946 425.392,321.783C425.949,322.611 426.192,323.662 426.107,324.612C426.038,325.569 425.732,326.443 425.328,327.224C424.948,327.943 424.488,328.595 423.97,329.186C424.452,329.263 424.942,329.313 425.438,329.333C425.712,329.346 425.989,329.353 426.266,329.353C426.675,329.353 427.085,329.338 427.494,329.305C428.183,329.27 428.869,329.169 429.549,329.052C430.231,328.933 430.899,328.76 431.562,328.568L432.538,328.232L433.479,327.824L433.659,327.726C433.446,327.508 433.262,327.26 433.057,327.033C432.859,326.713 432.659,326.387 432.491,326.047C432.38,325.685 432.206,325.334 432.152,324.954C432.128,324.573 431.997,324.19 432.068,323.807C432.117,323.426 432.098,323.025 432.252,322.667C432.384,322.306 432.456,321.912 432.682,321.597C432.892,321.279 433.036,320.902 433.307,320.634L434.071,319.781L434.303,319.523L434.583,319.762C435.148,320.242 435.752,320.675 436.236,321.269C436.361,321.413 436.499,321.543 436.612,321.698L436.928,322.19C437.162,322.503 437.298,322.885 437.43,323.27C437.513,323.455 437.55,323.656 437.561,323.866C437.58,324.073 437.605,324.281 437.614,324.489C437.534,324.894 437.53,325.338 437.329,325.7C437.046,326.495 436.476,327.079 435.922,327.622C435.648,327.862 435.353,328.07 435.065,328.29C435.317,328.445 435.557,328.632 435.846,328.715C436.174,328.833 436.492,328.999 436.846,329.032C437.134,329.084 437.423,329.153 437.716,329.153C437.775,329.153 437.834,329.15 437.894,329.144C438.248,329.14 438.605,329.15 438.948,329.042C439.294,328.959 439.654,328.912 439.97,328.735C440.285,328.57 440.648,328.482 440.929,328.252L441.812,327.626L440.96,328.299C440.688,328.547 440.329,328.655 440.015,328.841C439.701,329.037 439.338,329.105 438.985,329.209C438.637,329.338 438.268,329.349 437.898,329.372C437.799,329.387 437.701,329.393 437.602,329.393C437.332,329.393 437.064,329.348 436.794,329.313C436.418,329.295 436.074,329.142 435.718,329.032C435.351,328.944 435.049,328.709 434.712,328.546C434.701,328.54 434.69,328.535 434.679,328.529L434.034,328.914L433.019,329.403L431.974,329.811C431.267,330.045 430.553,330.259 429.826,330.416C429.1,330.571 428.366,330.708 427.624,330.775C427.041,330.849 426.451,330.874 425.86,330.874C425.701,330.874 425.542,330.872 425.383,330.869C424.631,330.856 423.875,330.781 423.12,330.647C422.939,330.613 422.758,330.575 422.577,330.532C422.373,330.701 422.165,330.864 421.952,331.02C420.598,332.009 419.027,332.77 417.36,333.129C417.01,333.211 416.457,333.315 416.027,333.331C415.863,333.341 415.701,333.346 415.539,333.346C415.251,333.346 414.967,333.331 414.687,333.302C413.814,333.217 412.979,333.025 412.175,332.771C411.34,332.502 410.536,332.166 409.765,331.762C409.214,332.339 408.59,332.855 407.904,333.286C406.34,334.261 404.576,334.725 402.729,334.743ZM369.082,324.912C368.959,324.912 368.84,324.917 368.724,324.928C368.18,324.98 367.754,325.152 367.548,325.393C367.332,325.619 367.22,325.978 367.257,326.466C367.286,326.943 367.495,327.488 367.789,327.986C367.93,328.222 368.092,328.449 368.271,328.666C368.441,328.501 368.599,328.328 368.738,328.147C368.979,327.863 369.169,327.554 369.327,327.237C369.489,326.923 369.592,326.592 369.673,326.257L369.749,325.745L369.757,325.223L369.729,324.952C369.507,324.926 369.29,324.912 369.082,324.912ZM421.066,321.177C420.814,321.561 420.557,321.943 420.369,322.348L419.929,323.239L419.624,324.149C419.521,324.453 419.52,324.752 419.456,325.054C419.396,325.357 419.473,325.633 419.461,325.926C419.512,326.2 419.592,326.465 419.683,326.725C419.843,326.949 419.91,327.229 420.138,327.419L420.423,327.739C420.535,327.834 420.663,327.917 420.781,328.008C421.005,328.205 421.296,328.335 421.574,328.48C421.576,328.482 421.579,328.483 421.581,328.484C422.338,327.825 422.994,327.061 423.458,326.225C424.101,325.066 424.306,323.778 423.702,322.872C423.223,322.066 422.195,321.521 421.066,321.177ZM354.015,325.43C353.956,325.44 353.898,325.451 353.841,325.465C353.622,325.514 353.38,325.528 353.18,325.6C352.983,325.674 352.769,325.729 352.587,325.81C352.436,325.915 352.235,325.984 352.119,326.1C352.011,326.216 351.863,326.31 351.821,326.443C351.723,326.551 351.716,326.698 351.671,326.83C351.664,326.98 351.648,327.135 351.683,327.309C351.728,327.485 351.744,327.662 351.842,327.85C351.902,328.023 351.985,328.194 352.093,328.364C352.199,328.26 352.302,328.152 352.398,328.038C352.567,327.87 352.719,327.687 352.853,327.487C352.987,327.288 353.153,327.115 353.263,326.898L353.626,326.274C353.735,326.06 353.826,325.833 353.929,325.613C353.959,325.553 353.988,325.492 354.015,325.43ZM341.912,324.008C341.705,324.188 341.507,324.376 341.331,324.579C341.001,324.938 340.746,325.341 340.555,325.755C340.408,326.178 340.292,326.612 340.371,327.038C340.413,327.464 340.586,327.875 340.853,328.239C340.868,328.263 340.884,328.287 340.9,328.31C341.115,328.124 341.295,327.901 341.46,327.673C341.557,327.519 341.637,327.355 341.724,327.197C341.783,327.023 341.855,326.855 341.907,326.681L342.021,326.14L342.068,325.584C342.061,325.208 342.057,324.832 341.987,324.456C341.974,324.306 341.946,324.156 341.912,324.008ZM409.799,323.256L409.732,323.281L409.461,323.382C409.289,323.448 409.074,323.517 408.962,323.582C408.42,323.806 407.858,324.174 407.543,324.52C407.209,324.884 407.121,325.186 407.165,325.603C407.203,326.022 407.467,326.558 407.854,327.051C408.161,327.449 408.536,327.831 408.952,328.185C408.974,328.144 408.997,328.103 409.018,328.062C409.64,326.905 410.021,325.54 410,324.318C409.993,324.021 409.96,323.731 409.893,323.516C409.868,323.407 409.83,323.317 409.799,323.256ZM383.82,325.045C383.412,325.633 383.069,326.229 382.85,326.813C382.665,327.298 382.582,327.759 382.628,328.09C383.241,327.503 383.706,326.855 383.856,326.236C383.955,325.827 383.957,325.446 383.82,325.045ZM395.852,322.859C395.585,323.666 395.394,324.479 395.313,325.279C395.215,326.264 395.284,327.229 395.588,328.069C396.477,327.608 397.276,327.053 397.735,326.447C398.046,326.049 398.132,325.725 398.114,325.421C398.082,325.111 397.905,324.697 397.541,324.272C397.104,323.766 396.513,323.294 395.852,322.859ZM434.357,320.634L433.893,321.113C433.635,321.346 433.511,321.668 433.31,321.941C433.092,322.212 433.028,322.549 432.897,322.858C432.743,323.167 432.758,323.512 432.697,323.843C432.615,324.177 432.729,324.513 432.73,324.851C432.763,325.188 432.911,325.504 432.993,325.835C433.134,326.144 433.304,326.446 433.47,326.747C433.677,326.992 433.858,327.263 434.082,327.496L434.37,327.34C434.638,327.145 434.923,326.965 435.18,326.759C435.655,326.325 436.142,325.861 436.356,325.293C436.531,325.027 436.515,324.721 436.604,324.433L436.576,323.982C436.58,323.831 436.561,323.68 436.496,323.533C436.404,323.235 436.321,322.931 436.126,322.657L435.88,322.231C435.788,322.095 435.666,321.973 435.56,321.841C435.227,321.391 434.787,321.017 434.357,320.634ZM409.751,323.172C409.751,323.172 409.752,323.174 409.754,323.178C409.755,323.18 409.757,323.182 409.759,323.184C409.754,323.177 409.751,323.172 409.751,323.172Z" style="fill:rgb(250,250,250);fill-rule:nonzero;"/>
    </g>
</svg>
