<?xml version="1.0" encoding="UTF-8" standalone="no"?>
<!DOCTYPE svg PUBLIC "-//W3C//DTD SVG 1.1//EN" "http://www.w3.org/Graphics/SVG/1.1/DTD/svg11.dtd">
<svg width="100%" height="100%" viewBox="0 0 657 774" version="1.1" xmlns="http://www.w3.org/2000/svg" xmlns:xlink="http://www.w3.org/1999/xlink" xml:space="preserve" xmlns:serif="http://www.serif.com/" style="fill-rule:evenodd;clip-rule:evenodd;stroke-linejoin:round;stroke-miterlimit:1.41421;">
    <g transform="matrix(4.16667,0,0,4.16667,-722.543,-227.791)">
        <path d="M223.602,133.87C192.936,111.464 207.8,72.255 249.949,72.251C291.184,72.248 302.544,118.464 270.748,134.571C292.241,140.172 307.495,159.077 310.269,180.083C315.122,221.394 286.935,240.351 240.242,240.3C182.594,240.239 170.909,154.876 224.295,134.571L223.602,133.87Z" style="fill:rgb(240,240,240);fill-rule:nonzero;"/>
    </g>
    <g transform="matrix(4.16667,0,0,4.16667,-722.543,-227.791)">
        <path d="M216.996,202.437C214.084,188.305 214.978,171.312 220.862,157.852C225.778,146.608 234.101,140.136 244.213,134.141C238.453,130.158 232.227,126.867 229.085,120.161C225.669,112.869 224.715,104.607 226.309,96.67C228.758,84.478 237.201,78.061 246.985,72.325C207.122,74.124 193.667,111.999 223.602,133.87L224.295,134.571C170.909,154.876 182.594,240.239 240.242,240.3C244.07,240.304 247.759,240.167 251.33,239.914C234.554,234.167 220.8,220.905 216.996,202.437Z" style="fill:rgb(208,210,209);fill-rule:nonzero;"/>
    </g>
    <g transform="matrix(4.16667,0,0,4.16667,-722.543,-227.791)">
        <path d="M269.503,172.571C277.241,172.571 277.241,160.571 269.503,160.571C261.765,160.571 261.765,172.571 269.503,172.571Z" style="fill:rgb(189,32,47);fill-rule:nonzero;"/>
    </g>
    <g transform="matrix(4.16667,0,0,4.16667,-722.543,-227.791)">
        <path d="M266.743,167.395C269.161,167.395 269.161,163.645 266.743,163.645C264.325,163.645 264.325,167.395 266.743,167.395Z" style="fill:rgb(139,23,35);fill-rule:nonzero;"/>
    </g>
    <g transform="matrix(4.16667,0,0,4.16667,-722.543,-227.791)">
        <path d="M271.943,169.495C274.361,169.495 274.361,165.745 271.943,165.745C269.525,165.745 269.525,169.495 271.943,169.495Z" style="fill:rgb(139,23,35);fill-rule:nonzero;"/>
    </g>
    <g transform="matrix(4.16667,0,0,4.16667,-722.543,-227.791)">
        <path d="M271.993,195.678C279.731,195.678 279.731,183.678 271.993,183.678C264.255,183.678 264.255,195.678 271.993,195.678Z" style="fill:rgb(189,32,47);fill-rule:nonzero;"/>
    </g>
    <g transform="matrix(4.16667,0,0,4.16667,-722.543,-227.791)">
        <path d="M269.233,190.502C271.651,190.502 271.651,186.752 269.233,186.752C266.815,186.752 266.815,190.502 269.233,190.502Z" style="fill:rgb(139,23,35);fill-rule:nonzero;"/>
    </g>
    <g transform="matrix(4.16667,0,0,4.16667,-722.543,-227.791)">
        <path d="M274.434,192.602C276.852,192.602 276.852,188.852 274.434,188.852C272.016,188.852 272.016,192.602 274.434,192.602Z" style="fill:rgb(139,23,35);fill-rule:nonzero;"/>
    </g>
    <g transform="matrix(4.16667,0,0,4.16667,-722.543,-227.791)">
        <path d="M298.199,159.616C309.23,151.796 318.083,141.65 328.67,133.33C330.57,131.836 327.896,129.202 326.018,130.678C315.683,138.801 307.074,148.745 296.307,156.378C294.352,157.764 296.222,161.018 298.199,159.616Z" style="fill:rgb(89,72,63);fill-rule:nonzero;"/>
    </g>
    <g transform="matrix(4.16667,0,0,4.16667,-722.543,-227.791)">
        <path d="M313.299,129.565C313.871,133.584 314.437,137.578 314.477,141.646C314.501,144.063 318.251,144.064 318.227,141.646C318.183,137.245 317.534,132.916 316.914,128.568C316.574,126.182 312.961,127.201 313.299,129.565Z" style="fill:rgb(89,72,63);fill-rule:nonzero;"/>
    </g>
    <g transform="matrix(4.16667,0,0,4.16667,-722.543,-227.791)">
        <path d="M311.993,148.13C317.726,147.578 323.482,147.379 329.218,146.872C331.607,146.661 331.628,142.909 329.218,143.122C323.482,143.629 317.726,143.828 311.993,144.38C309.608,144.609 309.586,148.362 311.993,148.13Z" style="fill:rgb(89,72,63);fill-rule:nonzero;"/>
    </g>
    <g transform="matrix(4.16667,0,0,4.16667,-722.543,-227.791)">
        <path d="M178.849,133.959C188.12,143.888 198.351,152.843 208.119,162.266C209.858,163.945 212.513,161.296 210.77,159.615C201.002,150.191 190.771,141.236 181.5,131.308C179.847,129.537 177.201,132.195 178.849,133.959Z" style="fill:rgb(89,72,63);fill-rule:nonzero;"/>
    </g>
    <g transform="matrix(4.16667,0,0,4.16667,-722.543,-227.791)">
        <path d="M175.192,143.314C179.536,143.893 183.895,143.941 188.27,143.942C190.688,143.943 190.688,140.193 188.27,140.192C183.895,140.191 179.536,140.143 175.192,139.564C172.801,139.246 172.832,143 175.192,143.314Z" style="fill:rgb(89,72,63);fill-rule:nonzero;"/>
    </g>
    <g transform="matrix(4.16667,0,0,4.16667,-722.543,-227.791)">
        <path d="M191.377,130.118C191.379,135.163 191.426,140.195 192,145.213C192.271,147.586 196.025,147.613 195.75,145.213C195.176,140.195 195.129,135.163 195.127,130.118C195.127,127.7 191.377,127.7 191.377,130.118Z" style="fill:rgb(89,72,63);fill-rule:nonzero;"/>
    </g>
    <g transform="matrix(4.16667,0,0,4.16667,-722.543,-227.791)">
        <path d="M250.295,99.958C253.52,99.958 253.52,94.958 250.295,94.958C247.071,94.958 247.071,99.958 250.295,99.958Z" style="fill:rgb(60,35,20);fill-rule:nonzero;"/>
    </g>
    <g transform="matrix(4.16667,0,0,4.16667,-722.543,-227.791)">
        <path d="M270.401,96.459C273.626,96.459 273.626,91.459 270.401,91.459C267.177,91.459 267.177,96.459 270.401,96.459Z" style="fill:rgb(60,35,20);fill-rule:nonzero;"/>
    </g>
    <g transform="matrix(4.16667,0,0,4.16667,-722.543,-227.791)">
        <path d="M242.326,113.662C248.775,113.662 248.775,103.662 242.326,103.662C235.877,103.662 235.877,113.662 242.326,113.662Z" style="fill:rgb(237,158,197);fill-rule:nonzero;"/>
    </g>
    <g transform="matrix(4.16667,0,0,4.16667,-722.543,-227.791)">
        <path d="M262.774,100.26C268.668,100.611 281.495,103.063 285.654,107.61C282.881,110.764 271.788,111.812 266.935,112.164C262.429,112.164 260.349,112.514 259.308,107.263C258.614,104.462 258.961,99.911 262.774,100.26Z" style="fill:rgb(250,174,63);fill-rule:nonzero;"/>
    </g>
    <g transform="matrix(4.16667,0,0,4.16667,-722.543,-227.791)">
        <path d="M262.774,100.885C267.035,101.194 271.22,102.013 275.335,103.143C277.685,103.788 279.956,104.673 282.127,105.779C285.323,107.41 284.536,108.097 281.563,109.178C277.528,110.646 273.003,111.008 268.764,111.394C267.092,111.546 265.438,111.57 263.761,111.497C259.337,111.302 257.474,101.143 262.774,100.885C263.577,100.846 263.58,99.596 262.774,99.635C256.821,99.925 256.879,111.098 261.997,112.425C265.633,113.367 269.837,112.64 273.495,112.13C277.639,111.553 282.894,111.073 286.097,108.052C286.342,107.821 286.335,107.401 286.097,107.168C280.393,101.604 270.384,100.188 262.774,99.635C261.97,99.577 261.976,100.827 262.774,100.885Z" style="fill:rgb(250,174,63);fill-rule:nonzero;"/>
    </g>
    <g transform="matrix(4.16667,0,0,4.16667,-722.543,-227.791)">
        <path d="M266.588,99.91C266.588,99.91 266.533,100.07 266.417,100.329C266.32,100.588 266.068,100.933 265.917,101.333C265.842,101.532 265.768,101.739 265.675,101.935C265.569,102.113 265.52,102.378 265.428,102.601C265.347,102.835 265.233,103.054 265.176,103.313C265.111,103.565 265.017,103.808 264.938,104.059C264.873,104.319 264.811,104.581 264.727,104.834C264.639,105.083 264.597,105.356 264.519,105.606C264.359,106.108 264.242,106.606 264.077,107.03C263.93,107.456 263.795,107.824 263.674,108.08C263.555,108.336 263.468,108.485 263.468,108.485C263.468,108.485 263.386,108.337 263.275,108.075C263.173,107.812 263.017,107.437 262.931,106.974C262.829,106.51 262.738,105.968 262.761,105.37C262.773,105.071 262.754,104.764 262.825,104.449C262.875,104.134 262.948,103.817 263.019,103.5C263.126,103.188 263.251,102.877 263.383,102.58C263.494,102.275 263.697,102.008 263.877,101.751C264.068,101.497 264.217,101.25 264.462,101.051C264.685,100.846 264.908,100.674 265.109,100.523C265.301,100.351 265.503,100.288 265.681,100.212C265.854,100.134 266.02,100.082 266.151,100.035C266.422,99.947 266.588,99.91 266.588,99.91Z" style="fill:rgb(246,146,35);fill-rule:nonzero;"/>
    </g>
    <g transform="matrix(4.16667,0,0,4.16667,-722.543,-227.791)">
        <path d="M271.44,100.784C271.44,100.784 271.418,100.937 271.354,101.184C271.309,101.427 271.134,101.77 271.065,102.137C271.02,102.32 270.975,102.511 270.911,102.694C270.853,102.884 270.813,103.11 270.745,103.316C270.675,103.523 270.612,103.739 270.561,103.966C270.512,104.191 270.419,104.402 270.369,104.632C270.311,104.859 270.254,105.087 270.178,105.308C270.113,105.536 270.05,105.759 269.988,105.976C269.835,106.409 269.735,106.835 269.574,107.202C269.437,107.572 269.318,107.893 269.205,108.121C269.096,108.35 269.015,108.485 269.015,108.485C269.015,108.485 268.928,108.361 268.808,108.135C268.697,107.908 268.522,107.579 268.426,107.169C268.321,106.759 268.213,106.271 268.23,105.741C268.237,105.477 268.225,105.201 268.275,104.925C268.317,104.648 268.383,104.37 268.444,104.091C268.519,103.816 268.636,103.548 268.746,103.288C268.848,103.023 268.987,102.779 269.148,102.556C269.305,102.329 269.445,102.117 269.622,101.927C269.806,101.737 269.994,101.576 270.164,101.434C270.326,101.278 270.492,101.179 270.648,101.111C270.796,101.03 270.94,100.973 271.056,100.923C271.292,100.827 271.44,100.784 271.44,100.784Z" style="fill:rgb(246,146,35);fill-rule:nonzero;"/>
    </g>
    <g transform="matrix(4.16667,0,0,4.16667,-722.543,-227.791)">
        <path d="M276.12,101.836C276.12,101.836 276.238,102.38 276.176,103.088C276.154,103.447 276.082,103.851 276.033,104.244C275.971,104.641 275.862,105.041 275.729,105.432C275.633,105.834 275.502,106.226 275.339,106.592C275.267,106.776 275.147,106.951 275.098,107.123C275.033,107.293 274.954,107.455 274.879,107.607C274.589,108.213 274.214,108.662 274.214,108.662C274.214,108.662 273.913,108.221 273.736,107.491C273.688,107.31 273.64,107.109 273.608,106.898C273.562,106.683 273.592,106.472 273.6,106.246C273.629,105.797 273.704,105.319 273.814,104.853C273.974,104.4 274.178,103.962 274.398,103.571C274.611,103.167 274.873,102.863 275.135,102.615C275.63,102.104 276.12,101.836 276.12,101.836Z" style="fill:rgb(246,146,35);fill-rule:nonzero;"/>
    </g>
    <g transform="matrix(4.16667,0,0,4.16667,-722.543,-227.791)">
        <path d="M280.801,103.408C280.801,103.408 280.871,103.498 280.963,103.651C281.046,103.808 281.177,104.006 281.228,104.282C281.302,104.56 281.332,104.888 281.322,105.187C281.313,105.504 281.27,105.8 281.193,106.096C281.121,106.377 281.01,106.652 280.899,106.893C280.768,107.14 280.656,107.359 280.5,107.563C280.359,107.767 280.242,107.947 280.127,108.086C280.016,108.223 279.935,108.312 279.935,108.312C279.935,108.312 279.849,108.243 279.729,108.107C279.62,107.974 279.444,107.761 279.354,107.498C279.244,107.236 279.157,106.906 279.153,106.58C279.149,106.417 279.141,106.235 279.169,106.077C279.187,105.912 279.225,105.749 279.26,105.585C279.345,105.277 279.473,104.972 279.616,104.722C279.77,104.458 279.926,104.253 280.104,104.073C280.274,103.895 280.437,103.701 280.571,103.59C280.706,103.473 280.801,103.408 280.801,103.408Z" style="fill:rgb(246,146,35);fill-rule:nonzero;"/>
    </g>
    <g transform="matrix(4.16667,0,0,4.16667,-722.543,-227.791)">
        <path d="M249.853,71.163C248.093,66.973 246.534,62.003 244.241,58.187C243.423,56.781 243.957,56.406 242.585,55.965C241.559,55.534 239.086,56.822 238.033,57.174C235.226,58.056 232.58,59.336 229.773,60.22C226.793,61.096 217.994,64.707 217.994,64.707C217.994,64.707 218.914,77.153 219.525,81.264" style="fill:rgb(89,72,63);fill-rule:nonzero;"/>
    </g>
    <g transform="matrix(4.16667,0,0,4.16667,-722.543,-227.791)">
        <path d="M251.129,70.811C249.302,66.332 247.764,61.747 245.384,57.519C243.828,54.754 242.691,54.051 239.443,55.195C232.13,57.772 224.821,60.491 217.642,63.431C217.121,63.644 216.623,64.075 216.67,64.707C217.089,70.347 217.474,76.013 218.249,81.616C218.481,83.301 221.033,82.582 220.802,80.912C220.2,76.559 219.904,72.155 219.555,67.776C219.496,67.037 219.439,66.296 219.382,65.557C219.271,64.109 219.591,65.475 218.459,65.938C220.18,65.233 221.907,64.546 223.637,63.865C228.498,61.953 233.446,60.141 238.385,58.451C241.548,57.369 242.098,57.079 243.836,60.167C245.835,63.719 247.041,67.75 248.576,71.515C249.212,73.074 251.774,72.393 251.129,70.811Z" style="fill:rgb(89,72,63);fill-rule:nonzero;"/>
    </g>
    <g transform="matrix(4.16667,0,0,4.16667,-722.543,-227.791)">
        <path d="M218.786,76.871C219.05,79.832 220.381,82.78 220.624,84.413L250.951,74.312C249.949,71.926 250.048,69.291 249.003,66.757C240.373,71.375 228.469,76.698 218.786,76.871Z" style="fill:rgb(112,99,85);fill-rule:nonzero;"/>
    </g>
    <g transform="matrix(4.16667,0,0,4.16667,-722.543,-227.791)">
        <path d="M216.375,77.535C216.77,80.124 217.629,82.536 218.213,85.077C218.507,86.354 220.036,87.241 221.289,86.823C231.397,83.457 241.507,80.089 251.616,76.723C252.854,76.311 253.811,74.991 253.362,73.647C252.533,71.165 252.239,68.578 251.414,66.093C250.893,64.521 249.219,63.817 247.742,64.599C238.802,69.326 229.053,73.924 218.786,74.371C215.575,74.51 215.561,79.511 218.786,79.371C229.969,78.885 240.514,74.073 250.265,68.916C249.041,68.418 247.817,67.92 246.593,67.422C247.417,69.907 247.711,72.494 248.541,74.977C249.123,73.952 249.705,72.926 250.287,71.901C240.178,75.268 230.068,78.635 219.959,82.002C220.984,82.584 222.01,83.166 223.035,83.748C222.451,81.207 221.592,78.795 221.197,76.206C220.712,73.027 215.895,74.382 216.375,77.535Z" style="fill:rgb(112,99,85);fill-rule:nonzero;"/>
    </g>
    <g transform="matrix(4.16667,0,0,4.16667,-722.543,-227.791)">
        <path d="M214.067,87.807C221.942,88.802 229.597,86.353 237.03,84.051C245.073,81.561 252.824,77.683 259.015,71.931C262.802,68.412 257.131,62.768 253.358,66.273C248.161,71.102 241.62,74.198 234.903,76.337C228.127,78.496 221.252,80.715 214.067,79.807C208.958,79.162 209.02,87.169 214.067,87.807Z" style="fill:rgb(89,72,63);fill-rule:nonzero;"/>
    </g>
    <g transform="matrix(4.16667,0,0,4.16667,-722.543,-227.791)">
        <path d="M234.993,182.32L216.273,182.32C216.273,167.865 217.432,154.965 220.148,139.194L238.591,142.43C236.069,157.077 234.993,169.009 234.993,182.32Z" style="fill:rgb(44,167,223);fill-rule:nonzero;"/>
    </g>
    <g transform="matrix(4.16667,0,0,4.16667,-722.543,-227.791)">
        <path d="M234.993,182.32L216.273,182.32C216.273,169.767 217.147,158.387 219.156,145.281C224.845,146.066 231.235,146.529 237.884,146.702C235.866,159.452 234.993,170.326 234.993,182.32ZM229.148,174.281C227.536,174.281 227.536,176.781 229.148,176.781C230.761,176.781 230.761,174.281 229.148,174.281ZM222.909,170.23C219.685,170.23 219.685,175.23 222.909,175.23C226.133,175.23 226.133,170.23 222.909,170.23ZM230.536,166.653C228.117,166.653 228.117,170.403 230.536,170.403C232.954,170.403 232.954,166.653 230.536,166.653ZM225.335,158.528C221.466,158.528 221.466,164.528 225.335,164.528C229.205,164.528 229.205,158.528 225.335,158.528ZM232.269,158.178C230.656,158.178 230.656,160.678 232.269,160.678C233.881,160.678 233.881,158.178 232.269,158.178ZM232.615,149.925C229.391,149.925 229.391,154.925 232.615,154.925C235.839,154.925 235.839,149.925 232.615,149.925ZM222.909,150.899C220.49,150.899 220.49,154.649 222.909,154.649C225.327,154.649 225.327,150.899 222.909,150.899Z" style="fill:rgb(47,155,202);fill-rule:nonzero;"/>
    </g>
    <g transform="matrix(4.16667,0,0,4.16667,-722.543,-227.791)">
        <path d="M244.015,146.78C228.951,146.78 214.514,145.395 205.549,142.266L211.714,124.265C225.916,129.227 266.343,128.772 286.296,123.431L291.128,141.842C279.537,144.944 261.359,146.78 244.015,146.78Z" style="fill:rgb(44,167,223);fill-rule:nonzero;"/>
    </g>
    <g transform="matrix(4.16667,0,0,4.16667,-722.543,-227.791)">
        <path d="M223.856,180.625C222.963,185.668 223.594,190.796 222.858,195.853C222.745,196.625 223.925,196.958 224.039,196.178C224.775,191.123 224.146,185.987 225.037,180.95C225.173,180.178 223.993,179.848 223.856,180.625Z" style="fill:rgb(23,118,187);fill-rule:nonzero;"/>
    </g>
    <g transform="matrix(4.16667,0,0,4.16667,-722.543,-227.791)">
        <path d="M226.496,181.311C226.938,186.09 226.686,190.874 226.663,195.664C226.659,196.454 227.883,196.454 227.887,195.664C227.911,190.874 228.162,186.09 227.721,181.311C227.649,180.531 226.423,180.524 226.496,181.311Z" style="fill:rgb(23,118,187);fill-rule:nonzero;"/>
    </g>
    <g transform="matrix(4.16667,0,0,4.16667,-722.543,-227.791)">
        <path d="M220.506,181.311C220.464,185.928 220.006,190.582 219.364,195.151C219.255,195.923 220.435,196.255 220.544,195.476C221.203,190.797 221.688,186.039 221.731,181.311C221.738,180.521 220.514,180.521 220.506,181.311Z" style="fill:rgb(23,118,187);fill-rule:nonzero;"/>
    </g>
    <g transform="matrix(4.16667,0,0,4.16667,-722.543,-227.791)">
        <path d="M229.824,181.484C229.835,186.153 229.978,190.821 229.99,195.49C229.992,196.28 231.216,196.28 231.214,195.49C231.202,190.821 231.061,186.153 231.048,181.484C231.046,180.695 229.822,180.694 229.824,181.484Z" style="fill:rgb(23,118,187);fill-rule:nonzero;"/>
    </g>
    <g transform="matrix(4.16667,0,0,4.16667,-722.543,-227.791)">
        <path d="M217.179,181.484C217.129,185.849 216.523,190.145 215.87,194.454C215.753,195.226 216.933,195.558 217.051,194.779C217.72,190.365 218.353,185.957 218.404,181.484C218.413,180.694 217.188,180.695 217.179,181.484Z" style="fill:rgb(23,118,187);fill-rule:nonzero;"/>
    </g>
    <g transform="matrix(4.16667,0,0,4.16667,-722.543,-227.791)">
        <path d="M233.112,181.135C233.695,185.794 233.468,190.458 233.445,195.14C233.441,195.93 234.666,195.929 234.669,195.14C234.693,190.458 234.919,185.794 234.336,181.135C234.24,180.362 233.014,180.353 233.112,181.135Z" style="fill:rgb(23,118,187);fill-rule:nonzero;"/>
    </g>
    <g transform="matrix(4.16667,0,0,4.16667,-722.543,-227.791)">
        <path d="M216.667,183.982C222.721,184.764 228.79,184.207 234.867,184.16C238.09,184.135 238.093,179.135 234.867,179.16C228.79,179.207 222.721,179.764 216.667,178.982C213.476,178.57 213.516,183.575 216.667,183.982Z" style="fill:rgb(23,118,187);fill-rule:nonzero;"/>
    </g>
    <g transform="matrix(4.16667,0,0,4.16667,-722.543,-227.791)">
        <path d="M216.322,133.216C213.098,133.216 213.098,128.216 216.322,128.216C219.546,128.216 219.546,133.216 216.322,133.216Z" style="fill:rgb(142,197,225);fill-rule:nonzero;"/>
    </g>
    <g transform="matrix(4.16667,0,0,4.16667,-722.543,-227.791)">
        <path d="M232.615,154.925C229.391,154.925 229.391,149.925 232.615,149.925C235.839,149.925 235.839,154.925 232.615,154.925Z" style="fill:rgb(140,189,214);fill-rule:nonzero;"/>
    </g>
    <g transform="matrix(4.16667,0,0,4.16667,-722.543,-227.791)">
        <path d="M222.909,175.23C219.685,175.23 219.685,170.23 222.909,170.23C226.133,170.23 226.133,175.23 222.909,175.23Z" style="fill:rgb(140,189,214);fill-rule:nonzero;"/>
    </g>
    <g transform="matrix(4.16667,0,0,4.16667,-722.543,-227.791)">
        <path d="M244.749,143.72C241.524,143.72 241.524,138.72 244.749,138.72C247.973,138.72 247.973,143.72 244.749,143.72Z" style="fill:rgb(142,197,225);fill-rule:nonzero;"/>
    </g>
    <g transform="matrix(4.16667,0,0,4.16667,-722.543,-227.791)">
        <path d="M267.282,132.87C264.058,132.87 264.058,127.87 267.282,127.87C270.507,127.87 270.507,132.87 267.282,132.87Z" style="fill:rgb(142,197,225);fill-rule:nonzero;"/>
    </g>
    <g transform="matrix(4.16667,0,0,4.16667,-722.543,-227.791)">
        <path d="M284.962,141.619C281.737,141.619 281.737,136.619 284.962,136.619C288.186,136.619 288.186,141.619 284.962,141.619Z" style="fill:rgb(142,197,225);fill-rule:nonzero;"/>
    </g>
    <g transform="matrix(4.16667,0,0,4.16667,-722.543,-227.791)">
        <path d="M222.909,154.649C220.49,154.649 220.49,150.899 222.909,150.899C225.327,150.899 225.327,154.649 222.909,154.649Z" style="fill:rgb(140,189,214);fill-rule:nonzero;"/>
    </g>
    <g transform="matrix(4.16667,0,0,4.16667,-722.543,-227.791)">
        <path d="M230.536,170.403C228.117,170.403 228.117,166.653 230.536,166.653C232.954,166.653 232.954,170.403 230.536,170.403Z" style="fill:rgb(140,189,214);fill-rule:nonzero;"/>
    </g>
    <g transform="matrix(4.16667,0,0,4.16667,-722.543,-227.791)">
        <path d="M212.162,141.695C209.744,141.695 209.744,137.945 212.162,137.945C214.581,137.945 214.581,141.695 212.162,141.695Z" style="fill:rgb(142,197,225);fill-rule:nonzero;"/>
    </g>
    <g transform="matrix(4.16667,0,0,4.16667,-722.543,-227.791)">
        <path d="M239.202,133.995C236.784,133.995 236.784,130.245 239.202,130.245C241.621,130.245 241.621,133.995 239.202,133.995Z" style="fill:rgb(142,197,225);fill-rule:nonzero;"/>
    </g>
    <g transform="matrix(4.16667,0,0,4.16667,-722.543,-227.791)">
        <path d="M258.614,143.796C256.196,143.796 256.196,140.046 258.614,140.046C261.032,140.046 261.032,143.796 258.614,143.796Z" style="fill:rgb(142,197,225);fill-rule:nonzero;"/>
    </g>
    <g transform="matrix(4.16667,0,0,4.16667,-722.543,-227.791)">
        <path d="M281.842,131.193C279.424,131.193 279.424,127.443 281.842,127.443C284.26,127.443 284.26,131.193 281.842,131.193Z" style="fill:rgb(142,197,225);fill-rule:nonzero;"/>
    </g>
    <g transform="matrix(4.16667,0,0,4.16667,-722.543,-227.791)">
        <path d="M227.416,140.37C223.546,140.37 223.546,134.37 227.416,134.37C231.285,134.37 231.285,140.37 227.416,140.37Z" style="fill:rgb(142,197,225);fill-rule:nonzero;"/>
    </g>
    <g transform="matrix(4.16667,0,0,4.16667,-722.543,-227.791)">
        <path d="M253.763,135.816C249.894,135.816 249.894,129.816 253.763,129.816C257.631,129.816 257.631,135.816 253.763,135.816Z" style="fill:rgb(142,197,225);fill-rule:nonzero;"/>
    </g>
    <g transform="matrix(4.16667,0,0,4.16667,-722.543,-227.791)">
        <path d="M272.481,141.772C268.612,141.772 268.612,135.772 272.481,135.772C276.351,135.772 276.351,141.772 272.481,141.772Z" style="fill:rgb(142,197,225);fill-rule:nonzero;"/>
    </g>
    <g transform="matrix(4.16667,0,0,4.16667,-722.543,-227.791)">
        <path d="M225.335,164.528C221.466,164.528 221.466,158.528 225.335,158.528C229.205,158.528 229.205,164.528 225.335,164.528Z" style="fill:rgb(140,189,214);fill-rule:nonzero;"/>
    </g>
    <g transform="matrix(4.16667,0,0,4.16667,-722.543,-227.791)">
        <path d="M234.695,143.171C233.083,143.171 233.083,140.671 234.695,140.671C236.308,140.671 236.308,143.171 234.695,143.171Z" style="fill:rgb(142,197,225);fill-rule:nonzero;"/>
    </g>
    <g transform="matrix(4.16667,0,0,4.16667,-722.543,-227.791)">
        <path d="M223.602,132.669C221.99,132.669 221.99,130.169 223.602,130.169C225.214,130.169 225.214,132.669 223.602,132.669Z" style="fill:rgb(142,197,225);fill-rule:nonzero;"/>
    </g>
    <g transform="matrix(4.16667,0,0,4.16667,-722.543,-227.791)">
        <path d="M262.429,138.269C260.816,138.269 260.816,135.769 262.429,135.769C264.041,135.769 264.041,138.269 262.429,138.269Z" style="fill:rgb(142,197,225);fill-rule:nonzero;"/>
    </g>
    <g transform="matrix(4.16667,0,0,4.16667,-722.543,-227.791)">
        <path d="M232.269,160.678C230.656,160.678 230.656,158.178 232.269,158.178C233.881,158.178 233.881,160.678 232.269,160.678Z" style="fill:rgb(140,189,214);fill-rule:nonzero;"/>
    </g>
    <g transform="matrix(4.16667,0,0,4.16667,-722.543,-227.791)">
        <path d="M229.148,176.781C227.536,176.781 227.536,174.281 229.148,174.281C230.761,174.281 230.761,176.781 229.148,176.781Z" style="fill:rgb(140,189,214);fill-rule:nonzero;"/>
    </g>
    <g transform="matrix(4.16667,0,0,4.16667,-722.543,-227.791)">
        <path d="M219.442,140.369C217.83,140.369 217.83,137.869 219.442,137.869C221.055,137.869 221.055,140.369 219.442,140.369Z" style="fill:rgb(142,197,225);fill-rule:nonzero;"/>
    </g>
    <g transform="matrix(4.16667,0,0,4.16667,-722.543,-227.791)">
        <path d="M275.948,130.217C274.336,130.217 274.336,127.717 275.948,127.717C277.561,127.717 277.561,130.217 275.948,130.217Z" style="fill:rgb(142,197,225);fill-rule:nonzero;"/>
    </g>
    <g transform="matrix(4.16667,0,0,4.16667,-722.543,-227.791)">
        <path d="M246.829,135.82C245.216,135.82 245.216,133.32 246.829,133.32C248.441,133.32 248.441,135.82 246.829,135.82Z" style="fill:rgb(142,197,225);fill-rule:nonzero;"/>
    </g>
</svg>
